<svg id="Capa_1" enable-background="new 0 0 512 512" height="512" viewBox="0 0 512 512" width="512" xmlns="http://www.w3.org/2000/svg"><path d="m76 512h360c8.284 0 15-6.716 15-15v-452c0-8.284-6.716-15-15-15h-105v-15c0-8.284-6.716-15-15-15h-120c-8.284 0-15 6.716-15 15v15h-105c-8.284 0-15 6.716-15 15v452c0 8.284 6.716 15 15 15zm135-482h90v30h-90zm-120 30h90v15c0 8.284 6.716 15 15 15h120c8.284 0 15-6.716 15-15v-15h90v422h-330z"/><path d="m346 181h-45v-46c0-8.284-6.716-15-15-15h-60c-8.284 0-15 6.716-15 15v46h-45c-8.284 0-15 6.716-15 15v60c0 8.284 6.716 15 15 15h45v46c0 8.284 6.716 15 15 15h60c8.284 0 15-6.716 15-15v-46h45c8.284 0 15-6.716 15-15v-60c0-8.284-6.716-15-15-15zm-15 60h-45c-8.284 0-15 6.716-15 15v46h-30v-46c0-8.284-6.716-15-15-15h-45v-30h45c8.284 0 15-6.716 15-15v-46h30v46c0 8.284 6.716 15 15 15h45z"/><path d="m346 362h-120c-8.284 0-15 6.716-15 15s6.716 15 15 15h120c8.284 0 15-6.716 15-15s-6.716-15-15-15z"/><circle cx="166" cy="377" r="15"/><path d="m346 422h-120c-8.284 0-15 6.716-15 15s6.716 15 15 15h120c8.284 0 15-6.716 15-15s-6.716-15-15-15z"/><circle cx="166" cy="437" r="15"/></svg>