<svg id="Capa_1" enable-background="new 0 0 512 512" height="512" viewBox="0 0 512 512" width="512" xmlns="http://www.w3.org/2000/svg"><g><path d="m446.519 305.306c-2.806-2.76-6.583-4.306-10.519-4.306h-173.153c-18.91-53.535-69.509-90-126.847-90-74.99 0-136 60.561-136 135s61.01 135 136 135c24.022 0 47.595-6.472 68.169-18.716 17.303-10.297 32.198-24.464 43.486-41.284h32.132l25.606 25.606c5.857 5.858 15.355 5.858 21.213 0l19.394-19.393 19.394 19.393c5.857 5.858 15.355 5.858 21.213 0l19.393-19.393 19.394 19.393c5.825 5.826 15.255 5.863 21.125.087l61-60c2.867-2.82 4.481-6.673 4.481-10.694s-1.614-7.874-4.481-10.694zm-10.432 109.568-19.48-19.48c-5.857-5.858-15.355-5.858-21.213 0l-19.394 19.393-19.394-19.393c-5.857-5.858-15.355-5.858-21.213 0l-19.393 19.393-19.394-19.393c-2.812-2.813-6.627-4.394-10.606-4.394h-46.645c-5.341 0-10.278 2.839-12.965 7.455-19.147 32.902-52.938 52.545-90.39 52.545-58.448 0-106-47.103-106-105s47.552-105 106-105c47.596 0 89.227 32.388 101.237 78.761 1.714 6.618 7.685 11.239 14.521 11.239h178.102l45.75 45z"/><path d="m106 301c-24.813 0-45 20.187-45 45s20.187 45 45 45 45-20.187 45-45-20.187-45-45-45zm0 60c-8.271 0-15-6.729-15-15s6.729-15 15-15 15 6.729 15 15-6.729 15-15 15z"/><path d="m151 136v-60c0-24.813-20.187-45-45-45s-45 20.187-45 45v60c0 24.813 20.187 45 45 45s45-20.187 45-45zm-60 0v-60c0-8.271 6.729-15 15-15s15 6.729 15 15v60c0 8.271-6.729 15-15 15s-15-6.729-15-15z"/><path d="m15 181c8.284 0 15-6.716 15-15v-120c0-8.284-6.716-15-15-15s-15 6.716-15 15v120c0 8.284 6.716 15 15 15z"/><path d="m391 136v-60c0-24.813-20.187-45-45-45s-45 20.187-45 45v60c0 24.813 20.187 45 45 45s45-20.187 45-45zm-60 0v-60c0-8.271 6.729-15 15-15s15 6.729 15 15v60c0 8.271-6.729 15-15 15s-15-6.729-15-15z"/><path d="m211 166v-120c0-8.284-6.716-15-15-15s-15 6.716-15 15v120c0 8.284 6.716 15 15 15s15-6.716 15-15z"/><path d="m271 166v-120c0-8.284-6.716-15-15-15s-15 6.716-15 15v120c0 8.284 6.716 15 15 15s15-6.716 15-15z"/><path d="m451 166v-120c0-8.284-6.716-15-15-15s-15 6.716-15 15v120c0 8.284 6.716 15 15 15s15-6.716 15-15z"/><path d="m497 31c-8.284 0-15 6.716-15 15v120c0 8.284 6.716 15 15 15s15-6.716 15-15v-120c0-8.284-6.716-15-15-15z"/></g></svg>