<svg id="Capa_1" enable-background="new 0 0 512 512" height="512" viewBox="0 0 512 512" width="512" xmlns="http://www.w3.org/2000/svg"><g><path d="m408 273c-20.671 0-38.255 13.42-44.531 32h-11.469c-34.738 0-63 28.262-63 63v81c0 18.196-14.804 33-33 33h-24c-18.196 0-33-14.804-33-33v-138.523c22.607-3.391 40-22.939 40-46.477v-16.079c42.022-15.822 72-56.433 72-103.921v-81c0-25.916-21.084-47-47-47h-17v-1c0-8.284-6.716-15-15-15s-15 6.716-15 15v32c0 8.284 6.716 15 15 15s15-6.716 15-15v-1h17c9.374 0 17 7.626 17 17v81c0 44.663-36.337 81-81 81h-32c-44.663 0-81-36.337-81-81v-81c0-9.374 7.626-17 17-17h17v1c0 8.284 6.716 15 15 15s15-6.716 15-15v-32c0-8.284-6.716-15-15-15s-15 6.716-15 15v1h-17c-25.916 0-47 21.084-47 47v81c0 47.488 29.978 88.099 72 103.921v16.079c0 23.538 17.393 43.085 40 46.477v138.523c0 34.738 28.262 63 63 63h24c34.738 0 63-28.262 63-63v-81c0-18.196 14.804-33 33-33h11.469c6.276 18.58 23.86 32 44.531 32 25.916 0 47-21.084 47-47s-21.084-47-47-47zm-249-9v-9.366c2.969.239 5.97.366 9 .366h32c3.03 0 6.031-.127 9-.366v9.366c0 9.374-7.626 17-17 17h-16c-9.374 0-17-7.626-17-17zm249 73c-9.374 0-17-7.626-17-17s7.626-17 17-17 17 7.626 17 17-7.626 17-17 17z"/></g></svg>