<svg id="Capa_1" enable-background="new 0 0 513.002 513.002" height="512" viewBox="0 0 513.002 513.002" width="512" xmlns="http://www.w3.org/2000/svg"><path d="m512.502 213.9c0-75.458-61.389-136.847-136.846-136.847-2.165 0-4.318.057-6.459.157-7.37-26.117-25.252-49.131-49.752-63.292-26.46-15.296-57.174-17.592-84.263-6.298-21.88 9.118-38.103 26.55-48.47 40.816-10.367-14.267-26.589-31.698-48.47-40.816-27.616-11.51-58.821-8.925-85.614 7.092-28.717 17.168-48.514 47.682-51.664 79.633-.008.083-.016.166-.022.249-6.449 78.895 58.919 135.836 116.52 176.58 21.944 15.706 42.285 28.507 62.185 39.134 4.416 2.358 9.716 2.358 14.132 0 18.879-10.082 38.156-22.125 58.762-36.701 15.739 32.323 43.84 57.558 78.112 69.527v124.343c0 24.813 20.187 45 45 45s45-20.186 45-45v-124.34c53.418-18.653 91.849-69.537 91.849-129.237zm-274 32.88c-18.254 13.065-35.272 23.979-51.79 33.205-16.518-9.227-33.542-20.146-51.858-33.254-23.335-16.506-52.88-38.903-74.409-65.81-22.226-27.778-31.914-55.176-29.614-83.752 2.273-22.626 16.515-44.347 37.19-56.708 18.818-11.249 39.656-13.077 58.68-5.149 29.209 12.172 46.251 47.854 46.405 48.182 2.459 5.295 7.767 8.683 13.605 8.683s11.146-3.388 13.605-8.683c.166-.358 17.416-36.102 46.406-48.182 18.652-7.776 39.146-6.148 57.709 4.58 16.377 9.466 28.932 24.899 34.803 42.09-57.832 15.986-100.424 69.067-100.424 131.918 0 10.395 1.171 20.521 3.377 30.258-1.191.852-2.41 1.72-3.685 2.622zm152.15 220.697c0 8.271-6.729 15-15 15s-15-6.729-15-15v-117.558c4.929.54 9.933.826 15.004.826 5.068 0 10.07-.286 14.996-.825zm-14.996-146.732c-58.915 0-106.846-47.931-106.846-106.846s47.931-106.847 106.846-106.847 106.846 47.933 106.846 106.848-47.931 106.845-106.846 106.845z"/><path d="m412.577 155.768-17.534 17.528c-5.874-2.816-12.449-4.396-19.387-4.396-24.813 0-45 20.187-45 45s20.187 45 45 45 45-20.187 45-45c0-6.94-1.581-13.516-4.399-19.392l17.53-17.523c5.859-5.856 5.86-15.354.003-21.213-5.856-5.861-15.353-5.861-21.213-.004zm-36.921 73.132c-8.271 0-15-6.729-15-15s6.729-15 15-15 15 6.729 15 15-6.729 15-15 15z"/></svg>