<svg id="Capa_1" enable-background="new 0 0 511.998 511.998" height="512" viewBox="0 0 511.998 511.998" width="512" xmlns="http://www.w3.org/2000/svg"><g><path d="m454.923 180.669-94.801-29.246c-6.679-51.507-50.826-91.423-104.123-91.423-53.296 0-97.444 39.915-104.124 91.423l-94.8 29.246c-6.817 2.103-11.21 8.717-10.505 15.816l30.002 301.995c.762 7.673 7.217 13.518 14.927 13.518h328.998c7.71 0 14.164-5.845 14.927-13.517l30.004-301.996c.705-7.099-3.688-13.714-10.505-15.816zm-198.924-90.669c41.355 0 75 33.645 75 75s-33.646 75-75 75-75-33.645-75-75 33.644-75 75-75zm150.914 391.998h-301.831l-27.446-276.277 74.851-23.093c8.408 49.533 51.621 87.372 103.512 87.372s95.103-37.838 103.512-87.371l74.852 23.092z"/><path d="m100.151 125.172c2.782 5.358 8.512 8.539 14.521 8.039 6.018-.486 11.156-4.532 13.042-10.267 18.276-55.592 69.829-92.944 128.285-92.944 58.455 0 110.008 37.352 128.284 92.944 2.076 6.315 7.944 10.319 14.247 10.319 1.553 0 3.132-.243 4.688-.754 7.87-2.588 12.152-11.064 9.565-18.935-10.766-32.745-31.203-60.921-59.103-81.48-28.495-20.996-62.273-32.094-97.681-32.094-35.41 0-69.187 11.098-97.681 32.095-18.99 13.993-34.521 31.513-45.9 51.601l-4.004-7.711c-3.817-7.353-12.871-10.218-20.225-6.4-7.352 3.817-10.217 12.873-6.4 20.225z"/><path d="m245.392 175.606c2.929 2.929 6.768 4.394 10.606 4.394s7.678-1.465 10.607-4.394c5.857-5.858 5.857-15.354 0-21.213l-21.135-21.134c-5.857-5.857-15.355-5.857-21.213 0s-5.858 15.355.001 21.213z"/><path d="m253.917 310.007c-8.284 0-15 6.716-15 15v91.983c0 8.284 6.716 15 15 15s15-6.716 15-15v-91.983c0-8.284-6.716-15-15-15z"/></g></svg>