<?xml version="1.0" encoding="UTF-8"?>
<svg id="svg2172" xmlns="http://www.w3.org/2000/svg" xmlns:svg="http://www.w3.org/2000/svg" version="1.1" viewBox="0 0 682.7 682.7">
  <!-- Generator: Adobe Illustrator 29.0.1, SVG Export Plug-In . SVG Version: 2.1.0 Build 192)  -->
  <path d="M401.3,120V0H121.3v120h40v462.7c0,55.1,44.9,100,100,100s100-44.9,100-100V120h40ZM161.3,40h200v40h-200v-40ZM261.3,642.7c-33.1,0-60-26.9-60-60v-300h120v300c0,33.1-26.9,60-60,60ZM321.3,242.7h-120v-122.7h120v122.7Z"/>
  <path d="M528.6,400.2c-15.2-26.2-30.2-48-30.8-48.9l-16.5-23.8-16.5,23.8c-.6.9-15.6,22.7-30.8,48.9-14,24.2-32.7,59.1-32.7,82.5,0,44.1,35.9,80,80,80s80-35.9,80-80-18.7-58.3-32.7-82.5ZM481.3,522.7c-22.1,0-40-17.9-40-40s1.3-17.5,27.2-62.2c4.4-7.6,8.8-14.8,12.8-21.2,4,6.4,8.4,13.7,12.8,21.2,25.9,44.6,27.2,59.6,27.2,62.2,0,22.1-17.9,40-40,40Z"/>
</svg>