<svg id="Capa_1" enable-background="new 0 0 512 512" height="512" viewBox="0 0 512 512" width="512" xmlns="http://www.w3.org/2000/svg"><path d="m186 451h140c8.284 0 15-6.716 15-15v-20c0-31.171-16.877-58.461-41.962-73.255 10.487-10.809 16.962-25.531 16.962-41.745 0-33.084-26.916-60-60-60s-60 26.916-60 60c0 16.214 6.475 30.936 16.963 41.745-25.086 14.794-41.963 42.084-41.963 73.255v20c0 8.284 6.716 15 15 15zm40-150c0-16.542 13.458-30 30-30s30 13.458 30 30-13.458 30-30 30-30-13.458-30-30zm-25 115c0-30.327 24.673-55 55-55s55 24.673 55 55v5h-110z"/><path d="m457 60h-2.198c-2.181-13.603-7.308-26.194-14.983-36.426-11.235-14.982-27.207-23.574-43.819-23.574s-32.584 8.592-43.819 23.574c-7.675 10.232-12.803 22.823-14.983 36.426h-22.395c-2.181-13.603-7.308-26.194-14.983-36.426-11.236-14.982-27.208-23.574-43.82-23.574s-32.584 8.592-43.819 23.574c-7.675 10.232-12.802 22.823-14.983 36.426h-22.395c-2.181-13.603-7.308-26.194-14.983-36.426-11.236-14.982-27.208-23.574-43.82-23.574s-32.584 8.592-43.819 23.574c-7.675 10.232-12.802 22.823-14.983 36.426h-2.198c-30.327 0-55 24.673-55 55v342c0 30.327 24.673 55 55 55h402c30.327 0 55-24.673 55-55v-342c0-30.327-24.673-55-55-55zm-61-30c12.775 0 23.989 12.72 28.212 30h-56.423c4.222-17.28 15.436-30 28.211-30zm-140 0c12.775 0 23.989 12.72 28.212 30h-56.423c4.222-17.28 15.436-30 28.211-30zm-140 0c12.775 0 23.989 12.72 28.212 30h-56.424c4.223-17.28 15.437-30 28.212-30zm-86 85c0-13.785 11.215-25 25-25h2.198c2.181 13.603 7.308 26.194 14.983 36.426 11.235 14.982 27.207 23.574 43.819 23.574 8.284 0 15-6.716 15-15s-6.716-15-15-15c-12.775 0-23.989-12.72-28.212-30h109.409c2.181 13.603 7.308 26.194 14.983 36.426 11.236 14.982 27.208 23.574 43.82 23.574 8.284 0 15-6.716 15-15s-6.716-15-15-15c-12.775 0-23.989-12.72-28.212-30h109.409c2.181 13.603 7.308 26.194 14.983 36.426 11.236 14.982 27.208 23.574 43.82 23.574 8.284 0 15-6.716 15-15s-6.716-15-15-15c-12.775 0-23.989-12.72-28.212-30h89.212c13.785 0 25 11.215 25 25v65h-452zm452 342c0 13.785-11.215 25-25 25h-402c-13.785 0-25-11.215-25-25v-247h452z"/></svg>