<svg id="Capa_1" enable-background="new 0 0 512.205 512.205" height="512" viewBox="0 0 512.205 512.205" width="512" xmlns="http://www.w3.org/2000/svg"><g><path d="m496.9 0h-96.127c-8.284 0-15 6.716-15 15s6.716 15 15 15h59.956l-117.577 117.577c-81.432-70.25-204.922-66.759-282.166 10.487-80.908 80.907-80.908 212.554 0 293.461 40.454 40.454 93.592 60.681 146.73 60.681s106.277-20.227 146.73-60.681c77.437-77.436 80.747-201.346 9.954-282.77l117.5-117.5v59.873c0 8.284 6.716 15 15 15s15-6.716 15-15v-96.128c0-8.284-6.716-15-15-15zm-163.666 430.312c-69.211 69.21-181.824 69.21-251.035 0-69.21-69.211-69.21-181.825 0-251.035 34.605-34.605 80.062-51.908 125.518-51.908s90.912 17.303 125.518 51.908c69.209 69.21 69.209 181.824-.001 251.035z"/></g></svg>