<svg id="Capa_1" enable-background="new 0 0 512 512" height="512" viewBox="0 0 512 512" width="512" xmlns="http://www.w3.org/2000/svg"><g><path d="m216 100h-5.271c6.489-10.112 10.271-22.119 10.271-35 0-35.841-29.159-65-65-65s-65 29.159-65 65c0 12.881 3.782 24.888 10.271 35h-5.271c-41.355 0-75 33.645-75 75v102c0 24.813 20.187 45 45 45 5.257 0 10.307-.906 15-2.57v147.57c0 24.813 20.187 45 45 45 11.515 0 22.033-4.347 30-11.486 7.967 7.139 18.485 11.486 30 11.486 24.813 0 45-20.187 45-45v-147.57c4.693 1.664 9.743 2.57 15 2.57 24.813 0 45-20.187 45-45v-102c0-41.355-33.645-75-75-75zm-95-35c0-19.299 15.701-35 35-35s35 15.701 35 35-15.701 35-35 35-35-15.701-35-35zm140 212c0 8.271-6.729 15-15 15s-15-6.729-15-15v-80c0-8.284-6.716-15-15-15s-15 6.716-15 15v270c0 8.271-6.729 15-15 15s-15-6.729-15-15v-120c0-8.284-6.716-15-15-15s-15 6.716-15 15v120c0 8.271-6.729 15-15 15s-15-6.729-15-15v-270c0-8.284-6.716-15-15-15s-15 6.716-15 15v80c0 8.271-6.729 15-15 15s-15-6.729-15-15v-102c0-24.813 20.187-45 45-45h120c24.813 0 45 20.187 45 45z"/><path d="m476 0h-200c-8.284 0-15 6.716-15 15s6.716 15 15 15h65v467c0 8.284 6.716 15 15 15h120c8.284 0 15-6.716 15-15v-482c0-8.284-6.716-15-15-15zm-15 482h-90v-31h15c8.284 0 15-6.716 15-15s-6.716-15-15-15h-15v-30h35c8.284 0 15-6.716 15-15s-6.716-15-15-15h-35v-30h15c8.284 0 15-6.716 15-15s-6.716-15-15-15h-15v-30h35c8.284 0 15-6.716 15-15s-6.716-15-15-15h-35v-30h15c8.284 0 15-6.716 15-15s-6.716-15-15-15h-15v-30h35c8.284 0 15-6.716 15-15s-6.716-15-15-15h-35v-30h15c8.284 0 15-6.716 15-15s-6.716-15-15-15h-15v-31h90z"/></g></svg>