<svg id="Layer_1" enable-background="new 0 0 512 512" height="512" viewBox="0 0 512 512" width="512" xmlns="http://www.w3.org/2000/svg"><g><path d="m75 212h240c19.881-.738 19.866-29.269 0-30h-240c-19.881.738-19.866 29.269 0 30z"/><path d="m75 272h120c19.881-.738 19.866-29.269 0-30h-120c-19.881.738-19.866 29.269 0 30z"/><path d="m75 332h120c19.881-.738 19.866-29.269 0-30h-120c-19.881.738-19.866 29.269 0 30z"/><path d="m75 392h80c19.881-.738 19.866-29.269 0-30h-80c-19.881.738-19.866 29.269 0 30z"/><path d="m165 121h15v15c.738 19.881 29.269 19.866 30 0v-15h15c19.881-.738 19.866-29.269 0-30h-15v-15c-.738-19.881-29.269-19.866-30 0v15h-15c-19.881.738-19.866 29.269 0 30z"/><path d="m498.841 143.537c-17.545-17.545-46.094-17.545-63.64 0l-45.201 45.202v-78.739h45c8.284 0 15-6.716 15-15v-50c0-24.813-20.187-45-45-45h-360c-24.813 0-45 20.187-45 45v452c0 8.284 6.716 15 15 15h360c8.284 0 15-6.716 15-15v-180.982l108.841-108.841c17.545-17.545 17.545-46.094 0-63.64zm-108.841-98.537c.757-19.877 29.251-19.862 30 0v35h-30zm-30 437h-330v-437c0-8.271 6.729-15 15-15h317.58c-1.665 4.695-2.58 9.742-2.58 15v173.739l-109.842 109.842c-26.114 26.114-45.379 58.218-56.161 93.419h-118.997c-19.881.738-19.866 29.269 0 30h130.37s.132 0 .198-.001c1.133-.019 2.291-.167 3.462-.46 39.645-9.911 75.872-30.423 104.768-59.318l46.202-46.203zm-67.415-110.992c-18.288 18.288-39.967 32.704-63.711 42.498 9.793-23.744 24.209-45.422 42.498-63.711l124.939-124.94 21.213 21.213zm185.043-185.044-38.891 38.891-21.213-21.213 38.891-38.891c5.849-5.848 15.365-5.848 21.213 0s5.848 15.364 0 21.213z"/></g></svg>