<svg id="Capa_1" enable-background="new 0 0 512 512" height="512" viewBox="0 0 512 512" width="512" xmlns="http://www.w3.org/2000/svg"><g><path d="m512 103c0-56.794-46.206-103-103-103-38.281 0-71.748 20.994-89.501 52.071-53.079-13.753-81.906 11.929-112.499 11.929-21.935 0-50.291-16-80-16-72.402 0-127 58.037-127 135 0 84.08 72 128.936 72 160 0 37.57 3.897 67.782 11.584 89.797 13.044 37.361 35.16 45.203 51.416 45.203 19.486 0 30.036-19.05 40.238-37.473 8.963-16.184 19.121-34.527 31.762-34.527s22.799 18.343 31.762 34.527c10.202 18.423 20.752 37.473 40.238 37.473 16.256 0 38.372-7.842 51.416-45.203 7.687-22.015 11.584-52.227 11.584-89.797 0-27.727 59.173-68.316 70.17-137.054 55.333-1.681 99.83-47.214 99.83-102.946zm-200 240c0 33.713-3.426 61.345-9.907 79.908-8.276 23.706-18.362 25.016-22.44 25.088-13.108-8.053-28.045-71.996-72.653-71.996-44.548 0-59.555 63.949-72.652 71.996-4.078-.072-14.164-1.382-22.44-25.088-6.482-18.563-9.908-46.195-9.908-79.908 0-48.359-72-84.695-72-160 0-60.841 40.794-105 97-105 24.078 0 52.036 16 80 16 36.663 0 59.771-22.858 101.526-13.7-12.205 54.049 20.659 107.93 73.801 122.19-10.864 62.795-70.327 96.36-70.327 140.51zm97-167c-40.252 0-73-32.748-73-73s32.748-73 73-73 73 32.748 73 73-32.748 73-73 73z"/><path d="m433 88h-9v-9c0-8.284-6.716-15-15-15s-15 6.716-15 15v9h-9c-8.284 0-15 6.716-15 15s6.716 15 15 15h9v9c0 8.284 6.716 15 15 15s15-6.716 15-15v-9h9c8.284 0 15-6.716 15-15s-6.716-15-15-15z"/></g></svg>