<?xml version="1.0" encoding="UTF-8"?>
<svg id="Capa_1" xmlns="http://www.w3.org/2000/svg" version="1.1" viewBox="0 0 512 512">
  <!-- Generator: Adobe Illustrator 29.0.1, SVG Export Plug-In . SVG Version: 2.1.0 Build 192)  -->
  <path d="M468,79h-62c-24.3,0-44,19.7-44,44v31c0,7.2,5.1,13.2,11.8,14.7v30.3h-54.7v-30.3c6.8-1.5,11.8-7.5,11.8-14.7v-31c0-24.3-19.7-44-44-44h-62c-24.3,0-44,19.7-44,44v31c0,7.2,5.1,13.2,11.8,14.7v30.3h-54.7v-30.3c6.8-1.5,11.8-7.5,11.8-14.7v-31c0-24.3-19.7-44-44-44h-62C19.7,79,0,98.7,0,123v31c0,7.2,5.1,13.2,11.8,14.7v178.2c0,37.7,22.6,71.1,57.6,85.1,1.8.7,3.7,1.1,5.6,1.1s3.8-.4,5.6-1.1c35-14,57.6-47.4,57.6-85.1v-117.9h54.7v117.8c0,37.7,22.6,71.1,57.6,85.1,1.8.7,3.7,1.1,5.6,1.1s3.8-.4,5.6-1.1c35-14,57.6-47.4,57.6-85.1v-117.8h54.7v117.9c0,37.7,22.6,71.1,57.6,85.1,1.8.7,3.7,1.1,5.6,1.1s3.8-.4,5.6-1.1c35-14,57.6-47.4,57.6-85.1v-178.2c6.8-1.5,11.8-7.5,11.8-14.7v-31c0-24.3-19.7-44-44-44ZM41.8,169h66.3v42.9c-.1.7-.2,1.4-.2,2.1s0,1.4.2,2.1v42.9H41.8v-90ZM30,123c0-7.7,6.3-14,14-14h62c7.7,0,14,6.3,14,14v16H30v-16ZM75,401.5c-20.3-10.5-33.2-31.4-33.2-54.7v-57.9h66.3v57.9c0,23.3-12.8,44.1-33.2,54.7ZM222.8,169h66.3v90h-66.3v-90ZM211,123c0-7.7,6.3-14,14-14h62c7.7,0,14,6.3,14,14v16h-90v-16ZM256,401.5c-20.3-10.5-33.2-31.4-33.2-54.7v-57.8h66.3v57.8c0,23.3-12.8,44.1-33.2,54.7ZM470.2,259h-66.3v-42.9c.1-.7.2-1.4.2-2.1s0-1.4-.2-2.1v-42.9h66.3v90ZM392,123c0-7.7,6.3-14,14-14h62c7.7,0,14,6.3,14,14v16h-90v-16ZM437,401.5c-20.3-10.5-33.2-31.4-33.2-54.7v-57.9h66.3v57.9c0,23.3-12.8,44.1-33.2,54.7Z"/>
</svg>