<svg id="Layer_1" enable-background="new 0 0 512 512" viewBox="0 0 512 512" xmlns="http://www.w3.org/2000/svg"><g><path d="m497 54.5h-482c-8.284 0-15 6.716-15 15v309.25c0 8.284 6.716 15 15 15h12.585v48.75c0 8.284 6.716 15 15 15h426.83c8.284 0 15-6.716 15-15v-48.75h12.585c8.284 0 15-6.716 15-15v-309.25c0-8.284-6.716-15-15-15zm-467 309.25v-279.25h150.187v279.25zm65.18 63.75h-37.595v-33.75h37.595zm292.585 0h-262.585v-33.75h262.585zm66.65 0h-36.65v-33.75h36.65zm27.585-63.75h-271.813v-34.692h85.133c5.329 0 10.259-2.828 12.948-7.428l16.802-28.732 18.465 30.238c2.725 4.461 7.574 7.183 12.802 7.183h125.663zm0-63.432h-117.247l-27.16-44.476c-2.75-4.505-7.658-7.21-12.945-7.182-5.277.05-10.141 2.871-12.805 7.428l-25.127 42.97h-76.529v-214.558h271.813z"/><path d="m135.5 114.895h-60.865c-8.284 0-15 6.716-15 15v135.17c0 8.284 6.716 15 15 15h60.865c8.284 0 15-6.716 15-15v-135.17c0-8.285-6.716-15-15-15zm-15 135.17h-30.865v-105.17h30.865z"/><path d="m383.668 236.265c2.131 1.095 4.482 1.659 6.856 1.659 3.958-.375 4.839.021 15.808-6.724 23.915-13.312 50.083-45.753 48.199-71.654.026-33.721-38.456-51.367-64.021-32.7-6.761-4.906-15.003-7.736-23.622-7.736-22.084-.55-40.62 19.755-40.337 42.358 0 44.928 54.785 73.599 57.117 74.797zm-27.113-74.797c.285-4.903 2.671-12.111 10.293-12.358 4.311 0 8.104 2.613 9.666 6.656 2.233 5.783 7.793 9.597 13.992 9.597h.001c6.199 0 11.76-3.813 13.992-9.596 1.562-4.044 5.357-6.658 9.668-6.658 5.715 0 10.364 4.682 10.364 10.437 0 21.89-22.619 38.924-33.933 46.069-13.069-8.391-33.843-25.559-34.046-43.877.002-.09.003-.18.003-.27z"/><circle cx="75.565" cy="320.049" r="15"/><circle cx="133.206" cy="320.049" r="15"/></g><g/><g/><g/><g/><g/><g/><g/><g/><g/><g/><g/><g/><g/><g/><g/></svg>