<svg id="Capa_1" enable-background="new 0 0 512 512" height="512" viewBox="0 0 512 512" width="512" xmlns="http://www.w3.org/2000/svg"><g><path d="m512 32.625c0-17.989-14.636-32.625-32.625-32.625h-25c-17.989 0-32.625 14.636-32.625 32.625v390.545c0 2.014.403 3.931 1.123 5.686-.001.001-.002.002-.003.003l.035.084c.015.035.028.071.043.106l30.047 73.31c2.309 5.633 7.793 9.312 13.88 9.312s11.571-3.679 13.88-9.312l30.047-73.31c.015-.035.029-.071.043-.106l.035-.084c-.001-.001-.002-.002-.003-.003.72-1.754 1.123-3.672 1.123-5.686zm-57.625-2.625h25c1.447 0 2.625 1.178 2.625 2.625v27.625h-30.25v-27.625c0-1.447 1.178-2.625 2.625-2.625zm27.625 60.25v317.92h-30.25v-317.92zm-22.891 347.92h15.532l-7.766 18.948z"/><path d="m376.5 0h-361.5c-8.284 0-15 6.716-15 15v482c0 8.284 6.716 15 15 15h361.5c8.284 0 15-6.716 15-15v-482c0-8.284-6.716-15-15-15zm-15 482h-331.5v-452h331.5z"/><path d="m105.375 180.625h60.25c8.284 0 15-6.716 15-15v-60.25c0-8.284-6.716-15-15-15h-60.25c-8.284 0-15 6.716-15 15v60.25c0 8.284 6.716 15 15 15zm15-60.25h30.25v30.25h-30.25z"/><path d="m286.125 210.875h-60.25c-8.284 0-15 6.716-15 15v60.25c0 8.284 6.716 15 15 15h60.25c8.284 0 15-6.716 15-15v-60.25c0-8.284-6.716-15-15-15zm-15 60.25h-30.25v-30.25h30.25z"/><path d="m286.125 331.375h-60.25c-8.284 0-15 6.716-15 15v60.25c0 8.284 6.716 15 15 15h60.25c8.284 0 15-6.716 15-15v-60.25c0-8.284-6.716-15-15-15zm-15 60.25h-30.25v-30.25h30.25z"/><path d="m224.626 159.468c1.939 4.625 6.062 7.975 10.986 8.926.947.183 1.899.273 2.846.273 3.973 0 7.83-1.581 10.676-4.463l47.667-48.292c5.819-5.896 5.758-15.394-.139-21.213-5.895-5.819-15.393-5.758-21.213.138l-31.861 32.279-3.88-9.252c-3.204-7.639-11.995-11.236-19.635-8.031-7.64 3.204-11.235 11.995-8.031 19.634z"/><path d="m104.126 285.948c1.939 4.625 6.062 7.975 10.986 8.926.947.183 1.899.272 2.846.272 3.973 0 7.83-1.58 10.676-4.463l47.667-48.292c5.819-5.896 5.758-15.393-.139-21.212-5.895-5.819-15.393-5.759-21.213.138l-31.861 32.279-3.88-9.252c-3.205-7.639-11.995-11.234-19.635-8.031-7.64 3.204-11.235 11.995-8.031 19.634z"/><path d="m104.126 406.448c1.939 4.625 6.062 7.975 10.986 8.926.947.183 1.899.272 2.846.272 3.973 0 7.83-1.58 10.676-4.463l47.667-48.292c5.819-5.896 5.758-15.393-.139-21.212-5.895-5.819-15.393-5.759-21.213.138l-31.861 32.279-3.88-9.252c-3.205-7.639-11.995-11.235-19.635-8.031s-11.235 11.995-8.031 19.634z"/></g></svg>