<svg id="Capa_1" enable-background="new 0 0 512.591 512.591" height="512" viewBox="0 0 512.591 512.591" width="512" xmlns="http://www.w3.org/2000/svg"><g><path d="m468.091 423.295h-149.468c1.85-5.026 2.82-10.374 2.82-15.874 0-12.839-5.247-24.862-14.775-33.854l-101.85-96.13c-22.319-21.066-51.935-32.668-83.391-32.668h-43.656v-15.054c0-8.284-6.716-15-15-15h-47.771c-8.284 0-15 6.716-15 15s6.716 15 15 15h32.771v144.242h-32.771c-8.284 0-15 6.716-15 15s6.716 15 15 15h47.771c8.284 0 15-6.716 15-15v-18.817h17.176l101.673 101.672c.128.128.257.253.389.376 17.404 16.191 40.388 25.108 64.719 25.108h206.363c24.537 0 44.5-19.962 44.5-44.5s-19.963-44.501-44.5-44.501zm0 59h-206.363c-16.634 0-32.284-6-44.097-16.898l-105.864-105.865c-2.813-2.813-6.628-4.393-10.606-4.393h-23.39v-80.371h43.657c23.423 0 46.312 8.924 62.799 24.485l101.85 96.13c3.46 3.266 5.366 7.541 5.366 12.038s-1.906 8.772-5.366 12.038c-5.918 5.587-13.683 3.921-23.081-4.949l-75.743-71.49c-6.025-5.688-15.518-5.413-21.204.612-5.686 6.024-5.412 15.518.612 21.205l75.743 71.49c11.371 10.732 23.932 16.236 35.905 16.397l189.782.571c7.995 0 14.5 6.505 14.5 14.5 0 7.996-6.505 14.5-14.5 14.5z"/><path d="m220.201 147.498c21.802 21.39 43.381 36.281 44.288 36.905 2.559 1.757 5.525 2.635 8.491 2.635 2.983 0 5.966-.888 8.532-2.663.901-.623 22.321-15.512 44.039-36.895 30.869-30.396 46.599-58.319 46.75-82.994.109-17.918-6.752-35.163-18.826-47.311-10.818-10.885-24.88-16.88-39.596-16.88-15.647 0-30.217 6.85-40.898 18.35-10.683-11.5-25.251-18.35-40.899-18.35-15.946 0-30.824 6.91-41.892 19.458-10.558 11.969-16.429 27.79-16.531 44.548-.152 24.758 15.507 52.749 46.542 83.197zm11.88-117.203c11.74 0 22.424 8.926 26.584 22.212 1.96 6.258 7.757 10.517 14.314 10.517 6.558 0 12.354-4.259 14.314-10.517 4.161-13.286 14.844-22.212 26.584-22.212 6.668 0 13.174 2.851 18.318 8.027 6.483 6.522 10.166 15.992 10.105 25.979-.097 15.878-13.416 37.722-37.504 61.51-11.981 11.832-24.102 21.66-31.887 27.632-24.496-18.644-69.437-59.016-69.253-88.958.117-18.852 12.868-34.19 28.425-34.19z"/><path d="m499.589 32.216c-4.792-3.378-14.857-9.543-27.914-12.435v-4.062c0-8.077-6.207-15.027-14.275-15.407-8.614-.406-15.725 6.458-15.725 14.983v5.038c-.566.153-1.13.292-1.699.463-16.974 5.113-28.981 18.483-31.337 34.892-2.208 15.383 4.46 30.18 17.4 38.617.663.432 1.358.811 2.081 1.133.72.321 17.845 7.944 37.134 15.059 5.589 2.062 18.404 7.901 16.678 17.57-1.283 7.184-9.974 14.615-22.296 14.615-12.357 0-24.26-4.919-31.948-13.181-5.669-6.092-15.216-7.003-21.422-1.46-6.217 5.553-6.711 15.096-1.123 21.262 9.396 10.368 22.362 17.756 36.532 21.197v4.666c0 8.077 6.207 15.027 14.275 15.407 8.614.406 15.725-6.458 15.725-14.983v-4.159c8.087-1.694 15.655-5.076 22.02-9.935 9.515-7.266 15.825-17.265 17.771-28.155 3.059-17.133-4.747-39.525-35.829-50.99-15.384-5.674-29.699-11.856-33.993-13.737-3.671-2.902-3.551-6.972-3.308-8.663.33-2.303 1.995-7.93 10.293-10.43 16.068-4.841 31.114 5.301 34.152 7.528.439.322.886.631 1.366.889 5.435 2.922 12.345 2.281 17.179-2.1.767-.696 1.45-1.454 2.047-2.262 5.022-6.798 3.124-16.489-3.784-21.36z"/><path d="m340.939 371.594h65.489c8.284 0 15-6.716 15-15v-30.482h30.482c8.284 0 15-6.716 15-15v-65.489c0-8.284-6.716-15-15-15h-30.482v-30.483c0-8.284-6.716-15-15-15h-65.489c-8.284 0-15 6.716-15 15v30.483h-30.482c-8.284 0-15 6.716-15 15v65.489c0 8.284 6.716 15 15 15h30.482v30.482c0 8.284 6.716 15 15 15zm-30.482-75.483v-35.489h30.482c8.284 0 15-6.716 15-15v-30.482h35.489v30.483c0 8.284 6.716 15 15 15h30.482v35.489h-30.482c-8.284 0-15 6.716-15 15v30.482h-35.489v-30.482c0-8.284-6.716-15-15-15h-30.482z"/></g></svg>