<?xml version="1.0" encoding="UTF-8"?>
<svg id="svg2163" xmlns="http://www.w3.org/2000/svg" xmlns:svg="http://www.w3.org/2000/svg" version="1.1" viewBox="0 0 682.7 682.7">
  <!-- Generator: Adobe Illustrator 29.0.1, SVG Export Plug-In . SVG Version: 2.1.0 Build 192)  -->
  <g id="g2179">
    <path d="M576,661.3H106.7c-58.8,0-106.7-47.9-106.7-106.7s4.7-36.3,13.6-52.1L248.2,75.9c0,0,0-.1.1-.2,18.9-33.6,54.5-54.4,93-54.4s74.1,20.9,93,54.4c0,0,0,.1.1.2l234.6,426.6c8.9,15.8,13.6,33.9,13.6,52.1,0,58.8-47.9,106.7-106.7,106.7ZM294.9,101.8L60.3,528.3c0,0,0,.1-.1.2-4.4,7.9-6.8,16.9-6.8,26.1,0,29.4,23.9,53.3,53.3,53.3h469.3c29.4,0,53.3-23.9,53.3-53.3s-2.4-18.2-6.8-26.1c0,0,0-.1-.1-.2L387.8,101.8c-9.5-16.7-27.3-27.1-46.5-27.1s-37,10.4-46.5,27.1Z"/>
  </g>
  <g id="g2183">
    <path d="M341.3,421.3c-14.7,0-26.7-11.9-26.7-26.7v-160c0-14.7,11.9-26.7,26.7-26.7s26.7,11.9,26.7,26.7v160c0,14.7-11.9,26.7-26.7,26.7Z"/>
  </g>
  <g id="g2187">
    <path id="path2189" d="M368,501.3c0,14.7-11.9,26.7-26.7,26.7s-26.7-11.9-26.7-26.7,11.9-26.7,26.7-26.7,26.7,11.9,26.7,26.7"/>
  </g>
</svg>