<?xml version="1.0" encoding="UTF-8"?>
<svg xmlns="http://www.w3.org/2000/svg" id="Layer_1" data-name="Layer 1" viewBox="0 0 64 64" width="512" height="512">
<path d="M38.167,23.461a1.076,1.076,0,0,1,1.256.641l3.537,8.841a1.222,1.222,0,0,0,1.169.8A1.131,1.131,0,0,0,45.1,32.2L39.829,18.661a4.258,4.258,0,0,0-3.994-2.732,2.767,2.767,0,0,1-2.764-2.764v-.45a1.072,1.072,0,0,1,.642-.982c1.584-.693,2.9-3.945,2.506-6.214a4.287,4.287,0,0,0-8.505.767c0,1.905,1.211,4.851,2.572,5.447a1.072,1.072,0,0,1,.642.982v.45a2.767,2.767,0,0,1-2.764,2.764,4.258,4.258,0,0,0-3.994,2.732L18.933,32.128a1.186,1.186,0,0,0,.44,1.457,1.145,1.145,0,0,0,.956.094A1.13,1.13,0,0,0,21,33.033L24.576,24.1a1.072,1.072,0,0,1,2.06.516L26.4,26.73A77.009,77.009,0,0,0,26.2,41.6L27.71,59.768a1.071,1.071,0,0,1-1.068,1.161A2.144,2.144,0,0,0,24.787,62h4.1l2.046-20.464a1.072,1.072,0,0,1,2.133,0L35.112,62h4.1a2.144,2.144,0,0,0-1.855-1.071,1.071,1.071,0,0,1-1.068-1.161L37.8,41.6a77.089,77.089,0,0,0-.2-14.874l-.235-2.112A1.072,1.072,0,0,1,38.167,23.461Z"/>

</svg>
