<?xml version="1.0" encoding="UTF-8"?>
<svg xmlns="http://www.w3.org/2000/svg" id="Layer_1" data-name="Layer 1" viewBox="0 0 64 64" width="512" height="512"><path d="M38.167,23.461a1.076,1.076,0,0,1,1.256.641l3.537,8.841a1.222,1.222,0,0,0,1.169.8A1.131,1.131,0,0,0,45.1,32.2L39.829,18.661a4.258,4.258,0,0,0-3.994-2.732,2.767,2.767,0,0,1-2.764-2.764v-.45a1.072,1.072,0,0,1,.642-.982c1.584-.693,2.9-3.945,2.506-6.214a4.287,4.287,0,0,0-8.505.767c0,1.905,1.211,4.851,2.572,5.447a1.072,1.072,0,0,1,.642.982v.45a2.767,2.767,0,0,1-2.764,2.764,4.258,4.258,0,0,0-3.994,2.732L18.933,32.128a1.186,1.186,0,0,0,.44,1.457,1.145,1.145,0,0,0,.956.094A1.13,1.13,0,0,0,21,33.033L24.576,24.1a1.072,1.072,0,0,1,2.06.516L26.4,26.73A77.009,77.009,0,0,0,26.2,41.6L27.71,59.768a1.071,1.071,0,0,1-1.068,1.161A2.144,2.144,0,0,0,24.787,62h4.1l2.046-20.464a1.072,1.072,0,0,1,2.133,0L35.112,62h4.1a2.144,2.144,0,0,0-1.855-1.071,1.071,1.071,0,0,1-1.068-1.161L37.8,41.6a77.089,77.089,0,0,0-.2-14.874l-.235-2.112A1.072,1.072,0,0,1,38.167,23.461Z"/><path d="M61,15H48a1,1,0,0,0-.707.293l-4,4a1,1,0,1,0,1.414,1.414L48.414,17H61a1,1,0,0,0,0-2Z"/><path d="M61,45H47.414l-4.707-4.707a1,1,0,0,0-1.414,1.414l5,5A1,1,0,0,0,47,47H61a1,1,0,0,0,0-2Z"/><path d="M3,29H17a1,1,0,0,0,0-2H3a1,1,0,0,0,0,2Z"/><path d="M2.635,25.931A1,1,0,0,0,3.6,25.8l4-3A1,1,0,0,0,8,22V18.721l2-.667,2,.667V22a1,1,0,0,0,.4.8l4,3a1,1,0,0,0,1.584-.621c.054-.3,1.3-7.335-1.388-10.551A4.469,4.469,0,0,0,13,13a1,1,0,0,0-1,1v2.612l-1-.333V11a1,1,0,0,0-2,0v5.279l-1,.333V14a1,1,0,0,0-1-1,4.469,4.469,0,0,0-3.6,1.628C.72,17.844,1.962,24.881,2.016,25.179A1,1,0,0,0,2.635,25.931Z"/><path d="M49,11a1,1,0,0,0,1,1v1a1,1,0,0,0,2,0V11.454L59.376,5H60a1,1,0,0,0,0-2h-.586l-.707-.707a1,1,0,0,0-1.414,1.414l.244.244L50.624,10H50A1,1,0,0,0,49,11Z"/><path d="M50,36v7a1,1,0,0,0,2,0V36.535l1.057-.7A3.247,3.247,0,0,0,55.464,38.4a3.3,3.3,0,0,0,.8.1,3.257,3.257,0,0,0,3.182-2.617,6.1,6.1,0,0,0-1.671-5.52l-.184-.184A3.982,3.982,0,0,0,54.753,29H53.5a2.5,2.5,0,0,0-.988,4.79l-2.067,1.378A1,1,0,0,0,50,36Z"/></svg>
