<svg fill="none" height="24" viewBox="0 0 24 24" width="24" xmlns="http://www.w3.org/2000/svg"><g fill="rgb(0,0,0)"><path clip-rule="evenodd" d="m14.667 1.99994c1.6497 0 2.9899 1.33201 2.9999 2.98169l.0412 6.75757c.0102 1.664-1.3359 3.0183-2.9999 3.0183h-3.893c-.2984 0-.5812.1333-.7712.3634l-2.98109 3.6108c-.59692.723-1.77115.3009-1.77115-.6366v-2.5257c0-.4484-.36346-.8119-.81181-.8119-1.33926 0-2.42722-1.0813-2.43539-2.4205l-.04466-7.31876c-.01015-1.66397 1.33594-3.0183 2.99995-3.0183zm-7.97575 4.09106c-.41421 0-.75.33579-.75.75 0 .41422.33579.75.75.75h5.99785c.4142 0 .75-.33578.75-.75 0-.41421-.3358-.75-.75-.75zm-.75 4.4077c0-.4142.33579-.74998.75-.74998h3.37995c.4142 0 .75.33578.75.74998s-.3358.75-.75.75h-3.37995c-.41421 0-.75-.3358-.75-.75z" fill-rule="evenodd"/><path d="m10.1368 18.8928c-.1355 0-.26898-.0089-.39979-.0264-.33885-.0451-.44743-.4438-.22979-.7074l1.41968-1.7197c.095-.115.2364-.1816.3856-.1816h3.4219c2.496 0 4.5151-2.0315 4.4999-4.5275l-.0224-3.66211c-.0017-.29112.2468-.52585.5289-.45376 1.2956.33116 2.2538 1.50577 2.2548 2.90457l.0041 5.622c.0011 1.5195-1.2304 2.7519-2.7499 2.7519-.5044 0-.914.4075-.9167.9118l-.0064 1.1989c-.0045.8486-.9972 1.3062-1.6454.7586l-3.1161-2.6331c-.1805-.1525-.4091-.2362-.6454-.2362z"/></g></svg>