<?xml version="1.0" encoding="iso-8859-1"?>
<!-- Generator: Adobe Illustrator 19.0.0, SVG Export Plug-In . SVG Version: 6.00 Build 0)  -->
<svg version="1.1" id="Capa_1" xmlns="http://www.w3.org/2000/svg" xmlns:xlink="http://www.w3.org/1999/xlink" x="0px" y="0px"
	 viewBox="0 0 512 512" style="enable-background:new 0 0 512 512;" xml:space="preserve">
<g>
	<g>
		<path d="M407,0H105C47.103,0,0,47.103,0,105v302c0,57.897,47.103,105,105,105h302c57.897,0,105-47.103,105-105V105
			C512,47.103,464.897,0,407,0z M482,300h-38.056l-35.207-66.893L375.52,263.21L362,231.797V482h-30V221.265l-75.457,147.524
			l-52.245-126.592l-37.561,70.754l-36.74-36.741L104.781,312H30v-30h59.219l36.784-52.21l33.26,33.259l48.439-91.246
			l51.755,125.408l67.128-131.237C320.691,160.496,317,152.681,317,144c0-11.102,6.036-20.789,15-25.977V30h30v88.023
			c8.964,5.188,15,14.874,15,25.977c0,9.058-4.02,17.172-10.367,22.673l19.848,46.117l30.782-27.897L462.056,270H482V300z"/>
	</g>
</g>
<g>
</g>
<g>
</g>
<g>
</g>
<g>
</g>
<g>
</g>
<g>
</g>
<g>
</g>
<g>
</g>
<g>
</g>
<g>
</g>
<g>
</g>
<g>
</g>
<g>
</g>
<g>
</g>
<g>
</g>
</svg>
