<svg id="Layer_1" height="512" viewBox="0 0 100 100" width="512" xmlns="http://www.w3.org/2000/svg"><path d="m50 5c-24.853 0-45 20.147-45 45s20.147 45 45 45 45-20.147 45-45-20.147-45-45-45zm16.882 56.225c1.562 1.563 1.562 4.095 0 5.657-.781.781-1.805 1.171-2.829 1.171s-2.047-.391-2.829-1.171l-11.224-11.225-11.225 11.225c-.781.781-1.805 1.171-2.829 1.171s-2.047-.391-2.829-1.171c-1.562-1.563-1.562-4.095 0-5.657l11.226-11.225-11.225-11.225c-1.562-1.563-1.562-4.095 0-5.657 1.563-1.562 4.095-1.562 5.657 0l11.225 11.225 11.225-11.225c1.563-1.562 4.095-1.562 5.657 0 1.562 1.563 1.562 4.095 0 5.657l-11.225 11.225z"/></svg>