<svg fill="none" height="24" viewBox="0 0 24 24" width="24" xmlns="http://www.w3.org/2000/svg"><path clip-rule="evenodd" d="m18.5935 10.8971c.1172-.1172.1172-.3072.0001-.4244l-5.0016-5.00157c-.1161-.11602-.3038-.11731-.4214-.00288l-9.78294 9.51915c-.30442.2962-.49072.6931-.52416 1.1165l-.27156 3.4387c-.08037 1.0176.72375 1.8878 1.74456 1.8878h2.99355c.01184 0 .02367-.0002.03549-.0004l12.13396-.0002c.4143 0 .75-.3358.75-.75s-.3358-.75-.75-.75l-9.2191.0002c-.2673 0-.40116-.3233-.2121-.5122zm-3.9206-6.46633c-.1183-.1183-.117-.31048.0029-.42715l.3-.29192c1.5023-1.46171 3.9017-1.43995 5.3772.04877 1.4806 1.49399 1.4749 3.90386-.0128 5.39081l-.2614.26124c-.1172.1171-.3071.11708-.4242-.00006z" fill-rule="evenodd"/></svg>