<svg fill="none" height="24" viewBox="0 0 24 24" width="24" xmlns="http://www.w3.org/2000/svg"><path clip-rule="evenodd" d="m6 2c-2.20914 0-4 1.79086-4 4v12c0 2.2091 1.79086 4 4 4h12c2.2091 0 4-1.7909 4-4v-12c0-2.20914-1.7909-4-4-4zm.58691 10c0-2.98956 2.42353-5.41309 5.41309-5.41309 2.9896 0 5.4131 2.42353 5.4131 5.41309 0 .5859-.475 1.0609-1.061 1.0609-.5732 0-1.0402-.4545-1.0602-1.0229v-2.23182c0-.41421-.3358-.75-.75-.75-.2413 0-.4559.1139-.5931.29085-.5454-.40139-1.2191-.63857-1.9485-.63857-1.8178 0-3.2915 1.47364-3.2915 3.29154s1.4737 3.2915 3.2915 3.2915c.7337 0 1.4111-.24 1.9582-.6457.1375.1699.3477.2786.5834.2786.3626 0 .6652-.2574.7349-.5995.3269.1515.6913.236 1.0753.236 1.4144 0 2.561-1.1465 2.561-2.5609 0-3.81799-3.0951-6.91309-6.9131-6.91309-3.81799 0-6.91309 3.0951-6.91309 6.91309 0 3.818 3.0951 6.9131 6.91309 6.9131 1.7701 0 3.3864-.6663 4.6089-1.7605.3087-.2762.3349-.7504.0587-1.059-.2763-.3087-.7504-.3349-1.0591-.0587-.9581.8576-2.2216 1.3782-3.6085 1.3782-2.98956 0-5.41309-2.4235-5.41309-5.4131zm5.41339-1.7915c.9892 0 1.7909.8018 1.7909 1.7915s-.8017 1.7915-1.7909 1.7915c-.9894 0-1.7915-.8021-1.7915-1.7915s.8021-1.7915 1.7915-1.7915z" fill-rule="evenodd"/></svg>