<svg id="Layer_1" height="512" viewBox="0 0 100 100" width="512" xmlns="http://www.w3.org/2000/svg"><path d="m81.889 9.556h-63.778c-7.229 0-13.111 5.881-13.111 13.111v38.95c0 7.229 5.882 13.111 13.111 13.111h14.44l14.545 14.545c.75.75 1.768 1.171 2.828 1.171s2.078-.421 2.828-1.171l14.546-14.545h14.59c7.23 0 13.112-5.882 13.112-13.111v-38.95c0-7.23-5.882-13.111-13.111-13.111zm-56.894 15.662h21.713c2.014 0 3.646 1.632 3.646 3.645s-1.632 3.645-3.646 3.645h-21.713c-2.013 0-3.645-1.632-3.645-3.645.001-2.013 1.632-3.645 3.645-3.645zm35.761 34.622h-35.761c-2.013 0-3.645-1.632-3.645-3.645s1.632-3.645 3.645-3.645h35.761c2.014 0 3.645 1.632 3.645 3.645s-1.631 3.645-3.645 3.645zm0-13.667h-35.761c-2.013 0-3.645-1.631-3.645-3.645 0-2.012 1.632-3.644 3.645-3.644h35.761c2.014 0 3.645 1.632 3.645 3.644-.001 2.014-1.631 3.645-3.645 3.645z"/></svg>