<svg fill="none" height="24" viewBox="0 0 24 24" width="24" xmlns="http://www.w3.org/2000/svg"><path clip-rule="evenodd" d="m21.999 5.24558c.0011-1.79221-1.4514-3.2457-3.2436-3.2457h-13.50471c-1.79057 0-3.24243 1.45092-3.2436 3.24149l-.00611 9.42113c-.00117 1.7922 1.45138 3.2457 3.2436 3.2457h.37478c.59713 0 1.0812.4841 1.0812 1.0812v1.9272c0 .92 1.07595 1.4197 1.77883.826l4.23791-3.5792c.1951-.1648.4423-.2552.6976-.2552h5.3343c1.7906 0 3.2425-1.4509 3.2436-3.2415zm-14.70359 2.49722c0-.41422.33579-.75.75-.75h7.90889c.4142 0 .75.33578.75.75 0 .41421-.3358.75-.75.75h-7.90889c-.41421 0-.75-.33579-.75-.75zm.75 3.6726c-.41421 0-.75.3358-.75.75s.33579.75.75.75h4.45689c.4142 0 .75-.3358.75-.75s-.3358-.75-.75-.75z" fill-rule="evenodd"/></svg>