<svg fill="none" height="24" viewBox="0 0 24 24" width="24" xmlns="http://www.w3.org/2000/svg"><path clip-rule="evenodd" d="m11.4874 20.3339c.3387-.0643.6864-.0643 1.0251 0l.9353.1774c.4069.0772.6742.4697.597.8766-.0772.407-.4697.6743-.8766.5971l-.9353-.1774c-.1539-.0292-.312-.0292-.4659 0l-.9353.1774c-.4069.0772-.7994-.1901-.8766-.5971-.07721-.4069.1901-.7994.5971-.8766z" fill-rule="evenodd"/><path d="m7.92383 6.32609c0-2.25116 1.82493-4.07609 4.07607-4.07609 2.2512 0 4.0761 1.82493 4.0761 4.07609v6.09781c0 .6896-.1713 1.3393-.4736 1.9087-.0425.0801-.03.1791.0341.2432l.7255.7256c.0898.0897.2395.0743.3041-.0349.4769-.8067.7505-1.7477.7505-2.7526 0-.4142.3358-.75.75-.75.4143 0 .75.3358.75.75 0 1.4471-.4444 2.7904-1.2041 3.9009-.0554.0809-.0469.1902.0225.2595l2.7953 2.7954c.2929.2929.2929.7677 0 1.0606s-.7677.2929-1.0606 0l-16.00003-15.99997c-.29289-.29289-.29289-.76777 0-1.06066s.76777-.29289 1.06066 0l3.22279 3.22279c.06299.06299.17071.01838.17071-.07071z"/><path d="m7.92383 12.0715c0-.3564.43085-.5348.68284-.2829l3.95063 3.9506c.2683.2684.1471.718-.2312.7479-.1076.0086-.2164.0129-.3262.0129-2.25114 0-4.07607-1.8249-4.07607-4.0761z"/><path d="m13.9366 17.5741c.1953-.0748.4188-.0367.5667.1111l.4017.4017c.2344.2345.1795.6284-.124.7618-.851.3742-1.7918.5819-2.781.5819-3.81999 0-6.91669-3.0967-6.91669-6.9167 0-.4142.33579-.75.75-.75.41422 0 .75.3358.75.75 0 2.9915 2.42513 5.4167 5.41669 5.4167.6824 0 1.3353-.1262 1.9366-.3565z"/></svg>