<svg fill="none" height="24" viewBox="0 0 24 24" width="24" xmlns="http://www.w3.org/2000/svg"><path clip-rule="evenodd" d="m5.83337 11.7639c.41422 0 .75.3358.75.75 0 2.9915 2.42513 5.4167 5.41663 5.4167 2.9916 0 5.4167-2.4252 5.4167-5.4167 0-.4142.3358-.75.75-.75s.75.3358.75.75c0 3.82-3.0967 6.9167-6.9167 6.9167-3.81993 0-6.91663-3.0967-6.91663-6.9167 0-.4142.33579-.75.75-.75z" fill-rule="evenodd"/><path clip-rule="evenodd" d="m11.4874 20.3339c.3387-.0643.6865-.0643 1.0252 0l.9352.1774c.407.0772.6743.4697.5971.8766-.0772.407-.4697.6743-.8767.5971l-.9352-.1774c-.1539-.0292-.312-.0292-.466 0l-.9352.1774c-.4069.0772-.7994-.1901-.87664-.5971-.07721-.4069.19014-.7994.59704-.8766z" fill-rule="evenodd"/><path d="m12 2.25c-2.25115 0-4.07608 1.82493-4.07608 4.07609v6.09781c0 2.2512 1.82493 4.0761 4.07608 4.0761 2.2512 0 4.0761-1.8249 4.0761-4.0761v-6.09781c0-2.25116-1.8249-4.07609-4.0761-4.07609z"/></svg>