<svg fill="none" height="24" viewBox="0 0 24 24" width="24" xmlns="http://www.w3.org/2000/svg"><path d="m3.04092 4.12628 1.49143-1.49146c.94692-.94694 2.51749-.81696 3.29586.27275l1.65422 2.31591c.61577.86205.51797 2.04291-.23107 2.792l-1.12246 1.12245c-.03436.03436-.04366.08649-.02332.13061 1.34929 2.92696 3.69882 5.27656 6.62582 6.62586.0441.0203.0963.011.1306-.0233l1.1225-1.1225c.7491-.7491 1.9299-.8468 2.792-.2311l2.3159 1.6543c1.0897.7783 1.2197 2.3489.2728 3.2958l-1.4914 1.4915c-.8536.8536-2.0822 1.2155-3.2622.961-7.27746-1.5696-12.96211-7.2542-14.53166-14.5317-.2545-1.18002.10741-2.40853.96098-3.26212z" /></svg>