<?xml version="1.0" encoding="UTF-8"?>
<svg xmlns="http://www.w3.org/2000/svg" version="1.1" viewBox="0 0 512 512">
  <!-- Generator: Adobe Illustrator 28.7.1, SVG Export Plug-In . SVG Version: 1.2.0 Build 142)  -->
  <g>
    <g id="Layer_1">
      <path d="M468.6,207.6L304.4,43.4c-23.2-23.2-61.1-23.3-84.4-.3-23,23.3-23,61.2.2,84.4l50.9,50.9-72.5,72.5-104.1-43.2c-15.2-6.3-37.2-1.9-48.9,9.7l-10,10c-11.7,11.6-11.7,30.7,0,42.4l88.8,88.8-92.5,92.5c-8,8-8,21,0,29s9.2,6,14.5,6,10.5-2,14.5-6l92.5-92.5,88.8,88.8c11.6,11.6,30.7,11.6,42.4,0l10-10c11.6-11.6,16-33.6,9.7-48.8l-43.2-104.1,72.5-72.5,50.9,50.9c23.2,23.2,61.1,23.3,84.5.2,23-23.3,22.9-61.2-.3-84.4h0Z"/>
    </g>
  </g>
</svg>