<svg id="Layer_1" height="512" viewBox="0 0 100 100" width="512" xmlns="http://www.w3.org/2000/svg"><path d="m73.04 5.056h-46.08c-7.223 0-13.1 5.876-13.1 13.099v63.69c0 7.223 5.877 13.099 13.1 13.099h29.067c1.061 0 2.078-.421 2.828-1.171l26.112-26.112c.75-.75 1.172-1.768 1.172-2.829v-46.677c.001-7.223-5.876-13.099-13.099-13.099zm-21.902 67.141h-19.221c-2.209 0-4-1.791-4-4s1.791-4 4-4h19.221c2.209 0 4 1.791 4 4s-1.791 4-4 4zm16.945-18.197h-36.166c-2.209 0-4-1.791-4-4s1.791-4 4-4h36.166c2.209 0 4 1.791 4 4s-1.791 4-4 4zm0-18.197h-36.166c-2.209 0-4-1.791-4-4s1.791-4 4-4h36.166c2.209 0 4 1.791 4 4s-1.791 4-4 4z" fill="rgb(0,0,0)"/></svg>