<svg fill="none" height="20" viewBox="0 0 20 20" width="20" xmlns="http://www.w3.org/2000/svg"><path clip-rule="evenodd" d="m8 4c-2.20914 0-4 1.79086-4 4 0 2.2091 1.79086 4 4 4 2.2091 0 4-1.7909 4-4 0-2.20914-1.7909-4-4-4zm-6 4c0-3.31371 2.68629-6 6-6 3.3137 0 6 2.68629 6 6 0 1.29583-.4108 2.4957-1.1093 3.4765l4.8164 4.8164c.3905.3905.3905 1.0237 0 1.4142s-1.0237.3905-1.4142 0l-4.8164-4.8164c-.9808.6985-2.18067 1.1093-3.4765 1.1093-3.31371 0-6-2.6863-6-6z" fill="rgb(0,0,0)" fill-rule="evenodd"/></svg>