<?xml version="1.0" encoding="iso-8859-1"?>
<!-- Generator: Adobe Illustrator 21.0.0, SVG Export Plug-In . SVG Version: 6.00 Build 0)  -->
<svg xmlns="http://www.w3.org/2000/svg" xmlns:xlink="http://www.w3.org/1999/xlink" version="1.1" id="Capa_1" x="0px" y="0px" viewBox="0 0 512 512" style="enable-background:new 0 0 512 512;" xml:space="preserve" width="512" height="512">
<g>
	<path d="M502.9,304.834L188.481,168.779c-5.64-2.388-12.173-1.143-16.509,3.193s-5.596,10.869-3.193,16.509l136.055,314.422   c2.388,5.552,7.837,9.097,13.799,9.097c0.439,0,0.894-0.015,1.362-0.059c6.475-0.586,11.836-5.288,13.271-11.631l31.553-135.491   l135.488-31.553c6.343-1.436,11.045-6.797,11.631-13.271S508.877,307.397,502.9,304.834z"/>
	<path d="M195,120c8.291,0,15-6.709,15-15V15c0-8.291-6.709-15-15-15s-15,6.709-15,15v90C180,113.291,186.709,120,195,120z"/>
	<path d="M120.762,248.027l-63.647,63.647c-5.859,5.859-5.859,15.352,0,21.211c5.86,5.86,15.351,5.86,21.211,0l63.647-63.647   c5.859-5.859,5.859-15.352,0-21.211S126.621,242.168,120.762,248.027z"/>
	<path d="M269.238,141.973l63.647-63.647c5.859-5.859,5.859-15.352,0-21.211s-15.352-5.859-21.211,0l-63.647,63.647   c-5.859,5.859-5.859,15.352,0,21.211C253.887,147.832,263.379,147.832,269.238,141.973z"/>
	<path d="M78.325,57.114c-5.859-5.859-15.352-5.859-21.211,0s-5.859,15.352,0,21.211l63.647,63.647c5.86,5.86,15.351,5.86,21.211,0   c5.859-5.859,5.859-15.352,0-21.211L78.325,57.114z"/>
	<path d="M120,195c0-8.291-6.709-15-15-15H15c-8.291,0-15,6.709-15,15s6.709,15,15,15h90C113.291,210,120,203.291,120,195z"/>
</g>















</svg>
