<?xml version="1.0" encoding="UTF-8"?><!DOCTYPE svg PUBLIC "-//W3C//DTD SVG 1.1//EN" "http://www.w3.org/Graphics/SVG/1.1/DTD/svg11.dtd"><svg xmlns="http://www.w3.org/2000/svg" xmlns:xlink="http://www.w3.org/1999/xlink"><defs/><symbol id="checked" viewBox="0 0 252 252">
<g>
	<path d="M180.636,74.573l-83.764,83.763l-25.509-25.508c-3.515-3.515-9.213-3.515-12.728,0c-3.515,3.515-3.515,9.213,0,12.728
		l31.873,31.873c1.757,1.758,4.06,2.636,6.364,2.636c2.303,0,4.607-0.879,6.364-2.636L193.364,87.3
		c3.515-3.515,3.515-9.213,0-12.728C189.85,71.058,184.15,71.058,180.636,74.573z"/>
	<path d="M126,0C56.523,0,0,56.523,0,126s56.523,126,126,126s126-56.523,126-126S195.477,0,126,0z M126,234
		c-59.551,0-108-48.449-108-108S66.449,18,126,18s108,48.449,108,108S185.551,234,126,234z"/>
</g>
<g>
</g>
<g>
</g>
<g>
</g>
<g>
</g>
<g>
</g>
<g>
</g>
<g>
</g>
<g>
</g>
<g>
</g>
<g>
</g>
<g>
</g>
<g>
</g>
<g>
</g>
<g>
</g>
<g>
</g>
</symbol><symbol id="diagnosis" viewBox="0 0 512 512"><path d="m76 512h360c8.284 0 15-6.716 15-15v-452c0-8.284-6.716-15-15-15h-105v-15c0-8.284-6.716-15-15-15h-120c-8.284 0-15 6.716-15 15v15h-105c-8.284 0-15 6.716-15 15v452c0 8.284 6.716 15 15 15zm135-482h90v30h-90zm-120 30h90v15c0 8.284 6.716 15 15 15h120c8.284 0 15-6.716 15-15v-15h90v422h-330z"/><path d="m346 181h-45v-46c0-8.284-6.716-15-15-15h-60c-8.284 0-15 6.716-15 15v46h-45c-8.284 0-15 6.716-15 15v60c0 8.284 6.716 15 15 15h45v46c0 8.284 6.716 15 15 15h60c8.284 0 15-6.716 15-15v-46h45c8.284 0 15-6.716 15-15v-60c0-8.284-6.716-15-15-15zm-15 60h-45c-8.284 0-15 6.716-15 15v46h-30v-46c0-8.284-6.716-15-15-15h-45v-30h45c8.284 0 15-6.716 15-15v-46h30v46c0 8.284 6.716 15 15 15h45z"/><path d="m346 362h-120c-8.284 0-15 6.716-15 15s6.716 15 15 15h120c8.284 0 15-6.716 15-15s-6.716-15-15-15z"/><circle cx="166" cy="377" r="15"/><path d="m346 422h-120c-8.284 0-15 6.716-15 15s6.716 15 15 15h120c8.284 0 15-6.716 15-15s-6.716-15-15-15z"/><circle cx="166" cy="437" r="15"/></symbol><symbol id="encrypt" viewBox="0 0 512 512"><g><path d="m446.519 305.306c-2.806-2.76-6.583-4.306-10.519-4.306h-173.153c-18.91-53.535-69.509-90-126.847-90-74.99 0-136 60.561-136 135s61.01 135 136 135c24.022 0 47.595-6.472 68.169-18.716 17.303-10.297 32.198-24.464 43.486-41.284h32.132l25.606 25.606c5.857 5.858 15.355 5.858 21.213 0l19.394-19.393 19.394 19.393c5.857 5.858 15.355 5.858 21.213 0l19.393-19.393 19.394 19.393c5.825 5.826 15.255 5.863 21.125.087l61-60c2.867-2.82 4.481-6.673 4.481-10.694s-1.614-7.874-4.481-10.694zm-10.432 109.568-19.48-19.48c-5.857-5.858-15.355-5.858-21.213 0l-19.394 19.393-19.394-19.393c-5.857-5.858-15.355-5.858-21.213 0l-19.393 19.393-19.394-19.393c-2.812-2.813-6.627-4.394-10.606-4.394h-46.645c-5.341 0-10.278 2.839-12.965 7.455-19.147 32.902-52.938 52.545-90.39 52.545-58.448 0-106-47.103-106-105s47.552-105 106-105c47.596 0 89.227 32.388 101.237 78.761 1.714 6.618 7.685 11.239 14.521 11.239h178.102l45.75 45z"/><path d="m106 301c-24.813 0-45 20.187-45 45s20.187 45 45 45 45-20.187 45-45-20.187-45-45-45zm0 60c-8.271 0-15-6.729-15-15s6.729-15 15-15 15 6.729 15 15-6.729 15-15 15z"/><path d="m151 136v-60c0-24.813-20.187-45-45-45s-45 20.187-45 45v60c0 24.813 20.187 45 45 45s45-20.187 45-45zm-60 0v-60c0-8.271 6.729-15 15-15s15 6.729 15 15v60c0 8.271-6.729 15-15 15s-15-6.729-15-15z"/><path d="m15 181c8.284 0 15-6.716 15-15v-120c0-8.284-6.716-15-15-15s-15 6.716-15 15v120c0 8.284 6.716 15 15 15z"/><path d="m391 136v-60c0-24.813-20.187-45-45-45s-45 20.187-45 45v60c0 24.813 20.187 45 45 45s45-20.187 45-45zm-60 0v-60c0-8.271 6.729-15 15-15s15 6.729 15 15v60c0 8.271-6.729 15-15 15s-15-6.729-15-15z"/><path d="m211 166v-120c0-8.284-6.716-15-15-15s-15 6.716-15 15v120c0 8.284 6.716 15 15 15s15-6.716 15-15z"/><path d="m271 166v-120c0-8.284-6.716-15-15-15s-15 6.716-15 15v120c0 8.284 6.716 15 15 15s15-6.716 15-15z"/><path d="m451 166v-120c0-8.284-6.716-15-15-15s-15 6.716-15 15v120c0 8.284 6.716 15 15 15s15-6.716 15-15z"/><path d="m497 31c-8.284 0-15 6.716-15 15v120c0 8.284 6.716 15 15 15s15-6.716 15-15v-120c0-8.284-6.716-15-15-15z"/></g></symbol><symbol id="model-gp" viewBox="0 0 512 512"><g><path d="m408 273c-20.671 0-38.255 13.42-44.531 32h-11.469c-34.738 0-63 28.262-63 63v81c0 18.196-14.804 33-33 33h-24c-18.196 0-33-14.804-33-33v-138.523c22.607-3.391 40-22.939 40-46.477v-16.079c42.022-15.822 72-56.433 72-103.921v-81c0-25.916-21.084-47-47-47h-17v-1c0-8.284-6.716-15-15-15s-15 6.716-15 15v32c0 8.284 6.716 15 15 15s15-6.716 15-15v-1h17c9.374 0 17 7.626 17 17v81c0 44.663-36.337 81-81 81h-32c-44.663 0-81-36.337-81-81v-81c0-9.374 7.626-17 17-17h17v1c0 8.284 6.716 15 15 15s15-6.716 15-15v-32c0-8.284-6.716-15-15-15s-15 6.716-15 15v1h-17c-25.916 0-47 21.084-47 47v81c0 47.488 29.978 88.099 72 103.921v16.079c0 23.538 17.393 43.085 40 46.477v138.523c0 34.738 28.262 63 63 63h24c34.738 0 63-28.262 63-63v-81c0-18.196 14.804-33 33-33h11.469c6.276 18.58 23.86 32 44.531 32 25.916 0 47-21.084 47-47s-21.084-47-47-47zm-249-9v-9.366c2.969.239 5.97.366 9 .366h32c3.03 0 6.031-.127 9-.366v9.366c0 9.374-7.626 17-17 17h-16c-9.374 0-17-7.626-17-17zm249 73c-9.374 0-17-7.626-17-17s7.626-17 17-17 17 7.626 17 17-7.626 17-17 17z"/></g></symbol><symbol id="model-pt" viewBox="0 0 512 512"><g><path d="m512 371c0-24.813-20.187-45-45-45h-26.19c1.665-4.695 2.58-9.741 2.58-15v-48.664l4.105-2.37c21.488-12.406 28.877-39.982 16.471-61.471-7.793-13.499-21.572-21.429-36.067-22.388-8.324-13.557-19.633-25.096-33.145-33.708-11.143-7.102-23.455-11.973-36.316-14.464 10.349-12.86 16.562-29.181 16.562-46.935 0-41.355-33.645-75-75-75s-75 33.645-75 75c0 17.519 6.054 33.642 16.159 46.422-49.728 8.245-87.769 51.549-87.769 103.578v40c0 9.005 2.189 17.504 6.043 25.014-16.164.151-30.818 6.722-41.532 17.287-11.8-16.509-31.108-27.301-52.901-27.301-35.841 0-65 29.159-65 65 0 18.605 7.87 35.397 20.44 47.257-12.457 10.091-20.44 25.499-20.44 42.743v50c0 8.284 6.716 15 15 15h482c8.284 0 15-6.716 15-15v-50c0-14.261-5.458-27.27-14.392-37.053 8.844-8.223 14.392-19.947 14.392-32.947zm-98.61-60c0 8.271-6.729 15-15 15s-15-6.729-15-15c0-.013-.002-.026-.002-.039v-13.983l30.002-17.322zm-113.39-275c24.813 0 45 20.187 45 45s-20.187 45-45 45-45-20.187-45-45 20.187-45 45-45zm-116.61 195c0-41.355 33.645-75 75-75h80c23.597 0 45.152 10.769 59.179 28.869l-81.676 47.156c-5.067 2.925-9.419 6.8-12.912 11.319-7.075-4.636-15.521-7.343-24.593-7.343h-34.998v-15c0-8.284-6.716-15-15-15s-15 6.716-15 15v30c0 8.284 6.716 15 15 15h49.998c8.271 0 15 6.729 15 15s-6.729 15-15 15h-69.998c-13.785 0-25-11.215-25-25zm-23.39 95h148.388c8.284 0 15-6.716 15-15 0 0 .128-39.321.129-39.986.005-5.482 2.763-10.345 7.376-13.009l86.603-50c7.163-4.137 16.354-1.674 20.49 5.49 4.136 7.163 1.673 16.354-5.49 20.49l-71.607 41.343c-4.641 2.68-7.5 7.631-7.5 12.99v52.682c0 8.284 6.716 15 15 15h98.611c8.271 0 15 6.729 15 15s-6.729 15-15 15h-307c-16.542 0-30-13.458-30-30s13.458-30 30-30zm-95-10c19.299 0 35 15.701 35 35s-15.701 35-35 35-35-15.701-35-35 15.701-35 35-35zm417 160h-452v-35c0-13.785 11.215-25 25-25h402c13.785 0 25 11.215 25 25z"/></g></symbol><symbol id="model-voice" viewBox="0 0 512.006 512.006"><path d="m143.971 431.294c-3.839 0-7.678-1.465-10.606-4.394-51.508-51.508-51.508-135.316 0-186.824 5.857-5.857 15.355-5.857 21.213 0s5.858 15.355 0 21.213c-39.811 39.811-39.811 104.588 0 144.398 5.858 5.857 5.858 15.355 0 21.213-2.929 2.929-6.768 4.394-10.607 4.394z"/><path d="m200.242 385.023c-3.839 0-7.678-1.465-10.606-4.394-25.994-25.994-25.994-68.289 0-94.283 5.857-5.857 15.355-5.857 21.213 0s5.858 15.355 0 21.213c-14.297 14.297-14.297 37.561 0 51.857 5.858 5.857 5.858 15.355 0 21.213-2.93 2.93-6.768 4.394-10.607 4.394z"/><path d="m87.549 476.305c-3.839 0-7.678-1.465-10.606-4.394-76.326-76.326-76.326-200.519 0-276.846 5.858-5.857 15.356-5.857 21.213 0 5.858 5.857 5.858 15.355 0 21.213-64.629 64.63-64.629 169.791 0 234.42 5.858 5.857 5.858 15.355 0 21.213-2.929 2.929-6.768 4.394-10.607 4.394z"/><path d="m477.313 512.006c-5.715 0-11.174-3.283-13.679-8.83l-20.224-44.781c-3.138-6.948-10.117-11.361-17.71-11.219-26.632.465-59.341.957-76.033.627-17.957-.355-28.423-7.979-34.041-14.312-7.784-8.773-11.355-20.76-10.056-33.75.752-7.528-1.282-10.093-5.333-15.2-3.064-3.863-6.878-8.67-8.718-15.516-2.792-10.393 1.287-21.721 10.391-28.859.407-.318.831-.617 1.269-.893l30.14-18.959-45.046-17.09c-.384-.146-.762-.308-1.133-.484-10.76-5.128-16.716-16.888-14.485-28.596l5.827-30.589c.594-3.118-.092-6.26-1.933-8.847-1.84-2.588-4.583-4.267-7.725-4.729l-29.654-4.359c-8.207-1.208-15.242-6.396-18.82-13.877-3.578-7.48-3.201-16.213 1.008-23.357l56.521-95.938c8.598-14.593 11.99-31.86 9.552-48.621l-3.879-26.666c-1.192-8.198 4.486-15.811 12.685-17.003s15.811 4.487 17.003 12.685l3.879 26.666c3.418 23.5-1.338 47.709-13.392 68.168l-52.652 89.371 22.114 3.251c11.308 1.664 21.183 7.709 27.807 17.021s9.094 20.623 6.956 31.849l-5.229 27.451 50.626 19.207c8.926 3.386 15.061 11.391 16.008 20.892.948 9.501-3.483 18.561-11.565 23.645l-36.186 22.762c.631.876 1.428 1.881 2.134 2.771 5.104 6.433 13.645 17.199 11.682 36.829-.265 2.643-.272 7.567 2.646 10.856 2.974 3.353 8.272 4.148 12.192 4.227 16.193.319 48.543-.167 74.915-.629 19.611-.306 37.501 10.988 45.576 28.867l20.224 44.781c3.41 7.55.053 16.435-7.497 19.845-2.003.904-4.101 1.333-6.165 1.333zm-134.605-188.13h.01z"/></symbol><symbol id="transcript" viewBox="0 0 512 512"><g><path d="m0 349.022c0 12.187 13.808 19.277 23.711 12.211l82.471-58.832c6.917-4.934 15.065-7.542 23.563-7.542h181.382c31.928 0 57.902-25.975 57.902-57.902v-190.331c0-8.284-6.716-15-15-15h-296.127c-31.927 0-57.902 25.974-57.902 57.902zm30-259.494c0-15.386 12.517-27.902 27.902-27.902h281.126v175.331c0 15.386-12.517 27.902-27.902 27.902h-181.382c-14.78 0-28.952 4.537-40.984 13.12l-58.76 41.917z"/><path d="m512 205.876c0-31.932-25.974-57.91-57.9-57.91h-40.07c-8.284 0-15 6.716-15 15s6.716 15 15 15h40.07c15.385 0 27.9 12.521 27.9 27.91v230.364l-58.759-41.915c-12.031-8.583-26.202-13.119-40.981-13.119h-181.39c-15.385 0-27.9-12.521-27.9-27.91v-13.439c0-8.284-6.716-15-15-15s-15 6.716-15 15v13.439c0 31.932 25.974 57.91 57.9 57.91h181.39c8.497 0 16.644 2.607 23.56 7.541l82.47 58.83c9.853 7.031 23.711.015 23.711-12.211v-259.49z"/><path d="m107.862 143.339h173.304c8.284 0 15-6.716 15-15s-6.716-15-15-15h-173.304c-8.284 0-15 6.716-15 15s6.716 15 15 15z"/><path d="m107.862 213.339h173.304c8.284 0 15-6.716 15-15s-6.716-15-15-15h-173.304c-8.284 0-15 6.716-15 15s6.716 15 15 15z"/></g></symbol></svg>