<?xml version="1.0" encoding="utf-8"?>
<!-- Generator: Adobe Illustrator 27.9.0, SVG Export Plug-In . SVG Version: 6.00 Build 0)  -->
<svg version="1.1" xmlns="http://www.w3.org/2000/svg" xmlns:xlink="http://www.w3.org/1999/xlink" x="0px" y="0px"
	 viewBox="0 0 700 300" style="enable-background:new 0 0 700 300;" xml:space="preserve">

<style>
path, polygon {
	fill: #FFF;
}
</style>
<g id="Layer_1">
	<g>
		<path d="M64.3,97.8c15.7,0,28.1,3.5,37.3,10.5c9.2,7,13.8,18.1,13.8,33.3v64.1c0,4-0.8,7-2.3,9.1c-1.5,2.1-3.8,4-6.9,5.8
			c-4.3,2.5-10.1,4.7-17.2,6.6c-7.1,1.9-15.3,2.8-24.5,2.8c-16.9,0-30.1-3.3-39.3-10c-9.3-6.7-13.9-16.3-13.9-28.9
			c0-11.9,3.9-20.9,11.6-26.9c7.7-6,18.7-9.8,32.7-11.2l38.4-3.8v-7.6c0-9-2.7-15.6-8.1-19.7c-5.4-4.1-12.7-6.2-21.9-6.2
			c-7.6,0-14.7,1.1-21.4,3.2c-6.7,2.2-12.6,4.6-17.8,7.3c-1.4-1.3-2.8-2.7-3.9-4.3c-1.2-1.6-1.8-3.4-1.8-5.4c0-2.5,0.6-4.6,1.9-6.2
			c1.3-1.6,3.2-3.2,5.9-4.6c4.9-2.5,10.5-4.5,16.8-5.8C50.1,98.5,56.9,97.8,64.3,97.8z M64.6,212.2c7.6,0,13.8-0.8,18.8-2.3
			c5-1.5,8.5-3,10.7-4.5v-39.2l-33.5,3.5c-9.4,0.9-16.3,3-20.8,6.4c-4.5,3.3-6.8,8.2-6.8,14.7c0,6.9,2.6,12.1,7.8,15.8
			C46,210.3,53.9,212.2,64.6,212.2z"/>
		<path d="M250.4,163.8c0,10.1-1.4,19.2-4.3,27.3c-2.9,8.1-7,15.1-12.3,20.8c-5.3,5.8-11.8,10.2-19.3,13.2c-7.6,3.1-16,4.6-25.4,4.6
			c-9.4,0-17.8-1.5-25.4-4.6c-7.6-3.1-14.1-7.5-19.5-13.2c-5.4-5.8-9.6-12.7-12.4-20.8c-2.9-8.1-4.3-17.2-4.3-27.3
			c0-10.1,1.5-19.2,4.5-27.3c3-8.1,7.2-15.1,12.6-20.8c5.4-5.8,11.9-10.2,19.5-13.3c7.6-3.1,16-4.6,25.1-4.6
			c9.2,0,17.6,1.5,25.1,4.6c7.6,3.1,14,7.5,19.3,13.3c5.3,5.8,9.5,12.7,12.4,20.8C248.9,144.6,250.4,153.7,250.4,163.8z M189,115.6
			c-12.3,0-21.9,4.2-28.9,12.7c-7,8.5-10.5,20.3-10.5,35.4c0,15.3,3.5,27.2,10.4,35.6c6.9,8.4,16.6,12.6,29.1,12.6
			c12.4,0,22.1-4.2,28.9-12.7c6.8-8.5,10.3-20.3,10.3-35.4c0-15.1-3.5-26.9-10.4-35.4C210.8,119.9,201.2,115.6,189,115.6z"/>
		<path d="M263.3,101.8c0.9-0.4,2.3-0.8,4.2-1.2c1.9-0.4,3.9-0.7,6.1-0.7c7.6,0,11.4,3.3,11.4,10v69.5c0,11.7,3.1,20.1,9.2,25
			c6.1,5,14.6,7.4,25.4,7.4c7.2,0,13.3-0.8,18.4-2.3c5-1.5,9-3.1,11.9-4.7v-103c0.9-0.4,2.3-0.8,4.2-1.2c1.9-0.4,3.8-0.7,5.8-0.7
			c7.7,0,11.6,3.3,11.6,10v94.1c0,3.8-0.5,6.8-1.5,9.1c-1,2.3-3.4,4.5-7.2,6.6c-4.1,2.3-9.9,4.6-17.2,6.8
			c-7.3,2.2-16.1,3.2-26.4,3.2c-18,0-31.9-4-41.5-11.9c-9.6-7.9-14.5-20.4-14.5-37.3V101.8z"/>
		<path d="M413.1,225.7c-0.9,0.4-2.3,0.8-4.1,1.2c-1.8,0.4-3.8,0.7-5.9,0.7c-7.8,0-11.6-3.2-11.6-9.7v-91.7c0-4.1,0.8-7.4,2.3-9.9
			c1.5-2.4,4.1-4.8,7.7-7.2c4.7-3.1,11-5.7,19.1-8c8-2.3,17.1-3.4,27.2-3.4c14.4,0,21.6,3.6,21.6,10.8c0,1.8-0.3,3.5-0.8,5
			c-0.5,1.5-1.3,2.8-2.2,3.9c-1.8-0.4-4.1-0.7-7-1.1c-2.9-0.4-5.8-0.5-8.7-0.5c-8.3,0-15.6,0.9-21.9,2.6c-6.3,1.7-11.5,3.7-15.7,6.1
			V225.7z"/>
		<path d="M587.6,163.8c0,10.1-1.4,19.2-4.3,27.3c-2.9,8.1-7,15.1-12.3,20.8c-5.3,5.8-11.8,10.2-19.3,13.2c-7.6,3.1-16,4.6-25.4,4.6
			c-9.4,0-17.8-1.5-25.4-4.6c-7.6-3.1-14.1-7.5-19.5-13.2c-5.4-5.8-9.6-12.7-12.4-20.8c-2.9-8.1-4.3-17.2-4.3-27.3
			c0-10.1,1.5-19.2,4.5-27.3c3-8.1,7.2-15.1,12.6-20.8c5.4-5.8,11.9-10.2,19.5-13.3c7.6-3.1,16-4.6,25.1-4.6s17.6,1.5,25.1,4.6
			c7.6,3.1,14,7.5,19.3,13.3c5.3,5.8,9.5,12.7,12.4,20.8C586.1,144.6,587.6,153.7,587.6,163.8z M526.2,115.6
			c-12.3,0-21.9,4.2-28.9,12.7c-7,8.5-10.5,20.3-10.5,35.4c0,15.3,3.5,27.2,10.4,35.6c6.9,8.4,16.6,12.6,29.1,12.6
			s22.1-4.2,28.9-12.7c6.8-8.5,10.3-20.3,10.3-35.4c0-15.1-3.5-26.9-10.4-35.4C548,119.9,538.4,115.6,526.2,115.6z"/>
		<path d="M688.7,193c0,11.5-4.2,20.6-12.7,27c-8.5,6.5-20.7,9.7-36.8,9.7c-6.9,0-13.2-0.6-18.9-1.8c-5.8-1.2-10.7-2.7-14.7-4.6
			c-4.1-1.9-7.2-4.1-9.5-6.5c-2.3-2.4-3.4-4.9-3.4-7.4c0-2.2,0.6-4.2,1.8-6.2c1.2-2,2.9-3.7,5.3-5.1c4.9,3.6,10.5,6.8,17,9.6
			c6.5,2.8,13.9,4.2,22.2,4.2c18.7,0,28.1-6.3,28.1-18.9c0-10.3-6.2-16.9-18.7-20l-22.4-6c-11-2.9-19-7.1-24.1-12.6
			c-5-5.5-7.6-12.6-7.6-21.2c0-4.7,0.9-9.2,2.8-13.5s4.8-8.1,8.8-11.4c4-3.2,8.9-5.8,14.7-7.7c5.9-1.9,12.8-2.8,20.7-2.8
			c12.6,0,22.8,1.9,30.6,5.5c7.7,3.7,11.6,8,11.6,12.8c0,2.3-0.6,4.4-1.8,6.2c-1.2,1.8-2.8,3.2-4.7,4.1c-3.2-2.2-7.8-4.5-13.8-7
			c-6-2.5-13-3.8-21.1-3.8c-8.1,0-14.6,1.5-19.3,4.6c-4.8,3.1-7.2,7.4-7.2,13c0,4.1,1.4,7.7,4.1,10.5c2.7,2.9,7.2,5.1,13.5,6.5
			l18.7,4.6c12.3,3.1,21.5,7.6,27.6,13.7C685.6,174.5,688.7,182.7,688.7,193z"/>
	</g>
</g>
<g id="Layer_2">
	<polygon points="91.5,149.4 137.9,146.6 137.9,163.8 83.3,167.3 	"/>
</g>
</svg>
