<?xml version="1.0" encoding="utf-8"?>
<!-- Generator: Adobe Illustrator 27.9.0, SVG Export Plug-In . SVG Version: 6.00 Build 0)  -->
<svg version="1.1" xmlns="http://www.w3.org/2000/svg" xmlns:xlink="http://www.w3.org/1999/xlink" x="0px" y="0px"
	 viewBox="0 0 500 500" style="enable-background:new 0 0 500 500;" xml:space="preserve">
<style type="text/css">
	.st0{display:none;}
	.st1{display:inline;}
	.st2{fill:url(#SVGID_1_);}
	.st3{fill:#FFFFFF;}
	.st4{fill:#F44588;}
	.st5{display:inline;fill:#FFFFFF;}
	.st6{display:inline;fill:#FF0062;}
	.st7{display:none;fill:#FFFFFF;}
	.st8{display:none;fill:#FF0055;}
	.st9{fill:#FF0086;}
</style>
<g id="Layer_1" class="st0">
	<g class="st1">
		<linearGradient id="SVGID_1_" gradientUnits="userSpaceOnUse" x1="250" y1="1.1045" x2="250" y2="501.1046">
			<stop  offset="0" style="stop-color:#9BF8FD"/>
			<stop  offset="1" style="stop-color:#02B8C1"/>
		</linearGradient>
		<rect class="st2" width="500" height="500"/>
	</g>
</g>
<g id="Record" class="st0">
	<g id="Layer_2" class="st1">
		<path class="st3" d="M204.3,134H294c11.1,0,20.1-9,20.1-20.1v-44h-15.9c-5.4-22-25.3-38.4-49-38.4c-23.7,0-43.6,16.4-49,38.4
			h-15.9v44C184.3,125,193.3,134,204.3,134z"/>
		<path class="st3" d="M370.9,69.9H338v44c0,24.3-19.7,44-44,44h-89.7c-24.3,0-44-19.7-44-44v-44h-32.9c-24.3,0-44,19.7-44,44v281.9
			c0,24.3,19.7,44,44,44h243.4c24.3,0,44-19.7,44-44V113.9C414.9,89.7,395.2,69.9,370.9,69.9z M338,312.5c0,6.6-5.4,12-12,12h-39.3
			v39.3c0,6.6-5.4,12-12,12h-51.3c-6.6,0-12-5.4-12-12v-39.3h-39.3c-6.6,0-12-5.4-12-12v-51.3c0-6.6,5.4-12,12-12h39.3V210
			c0-6.6,5.4-12,12-12h51.3c6.6,0,12,5.4,12,12v39.3h39.3c6.6,0,12,5.4,12,12V312.5z"/>
	</g>
	<g id="Layer_3" class="st1">
		<path class="st4" d="M338,312.5c0,6.6-5.4,12-12,12h-39.3v39.3c0,6.6-5.4,12-12,12h-51.3c-6.6,0-12-5.4-12-12v-39.3h-39.3
			c-6.6,0-12-5.4-12-12v-51.3c0-6.6,5.4-12,12-12h39.3V210c0-6.6,5.4-12,12-12h51.3c6.6,0,12,5.4,12,12v39.3h39.3
			c6.6,0,12,5.4,12,12V312.5z"/>
	</g>
</g>
<g id="Layer_5" class="st0">
	<path class="st5" d="M423.1,194.4c-6.8,0.2-13,2.5-18.3,6.9c-5.2,4.2-8.5,9.5-10.5,13.3c-2.2-3.7-5.8-8.8-11.2-12.7
		c-5.6-4.1-11.9-6.1-18.7-5.9c-19,0.5-32.8,16.4-32.3,36.9c0.6,22.2,18.8,36.9,46.4,59.2c4.7,3.8,10,8.1,15.5,12.7
		c0.7,0.6,1.7,0.9,2.6,0.9c0.9,0,1.9-0.4,2.5-1c5.3-4.9,10.4-9.4,14.8-13.5c26.4-23.7,43.8-39.4,43.2-61.6
		C456.7,209,442,193.9,423.1,194.4z"/>
	<path class="st5" d="M410.5,273.9c-0.6,0.8-1.4,1.3-2.3,1.5c-0.9,0.2-1.9,0-2.7-0.4c-5.8-3.3-11.3-6.3-16.3-9.1
		c-0.1,0.7-0.2,1.4-0.3,2.1c-5.5,36.7-24.9,69.1-54.7,91.2c-29.8,22.1-66.4,31.2-103.1,25.8s-69.1-24.9-91.2-54.7
		c-22.1-29.8-31.2-66.4-25.8-103.1c5.5-36.7,24.9-69.1,54.7-91.2c29.8-22.1,66.4-31.2,103.1-25.8S341,135,363,164.8
		c2,2.7,4,5.1,5.6,8.2c2.8,4.2,11.3,15.6,21,13.2s13.9-11.3,10-17.1c-24.1-45.5-68.7-79.3-123.5-87.5
		c-91.6-13.6-177,49.6-190.6,141.2c-13.6,91.6,49.6,177,141.2,190.6s177-49.6,190.6-141.2c0.4-2.9,0.8-5.8,1.1-8.7
		C415.9,266.8,413.2,270.3,410.5,273.9z"/>
	<path class="st6" d="M411.2,217.5c-4,0.1-7.6,1.5-10.8,4.1c-3,2.5-5,5.6-6.2,7.8c-1.3-2.2-3.4-5.2-6.6-7.5c-3.3-2.4-7-3.6-11-3.5
		c-11.2,0.3-19.4,9.7-19,21.8c0.3,13.1,11.1,21.8,27.4,34.9c2.8,2.2,5.9,4.8,9.2,7.5c0.4,0.4,1,0.5,1.5,0.5c0.6,0,1.1-0.2,1.5-0.6
		c3.1-2.9,6.1-5.6,8.8-7.9c15.6-14,25.8-23.2,25.5-36.3C431,226.2,422.4,217.3,411.2,217.5z"/>
</g>
<g id="Layer_6">
	<path class="st7" d="M132.7,250c0-64.8,52.5-117.3,117.3-117.3c39.2,0,73.9,19.2,95.2,48.8c1.3-0.1,2.6-0.2,4-0.2
		c8,0,15.2,2.2,21.7,6.4c6.2,4.1,10.3,9.3,12.7,13.1c2.4-3.8,6.5-9,12.7-13.1c4-2.7,8.3-4.5,13-5.5C382.8,120.4,321.5,77,250,77
		c-95.5,0-173,77.4-173,173c0,27.4,6.4,53.2,17.7,76.2c21.5,16.4,47.2,28.1,75.7,33c14.3,2.5,28.5,3.1,42.3,2
		C166.2,345.7,132.7,301.7,132.7,250z"/>
	<path class="st8" d="M363.9,250.5c-0.2,82.3-56.3,151.4-132.3,171.5c6.1,0.6,12.2,1,18.4,1c95.4,0,172.7-77.2,172.9-172.5H363.9z"
		/>
	<path class="st8" d="M416.6,194.6c-7.5,0-14.4,2.4-20.5,7.1c-5.8,4.5-9.7,10.2-12,14.4c-2.3-4.2-6.2-9.9-12-14.4
		c-6.1-4.7-13-7.1-20.5-7.1c-21,0-36.8,17.2-36.8,39.9c0,24.6,19.7,41.4,49.6,66.9c5.1,4.3,10.8,9.2,16.8,14.5
		c0.8,0.7,1.8,1.1,2.9,1.1c1.1,0,2.1-0.4,2.9-1.1c6-5.2,11.7-10.1,16.8-14.5c29.9-25.5,49.6-42.3,49.6-66.9
		C453.4,211.7,437.5,194.6,416.6,194.6z"/>
	<path class="st9" d="M453.4,234.5c0-22.8-15.8-39.9-36.8-39.9c-7.5,0-14.4,2.4-20.5,7.1c-5.8,4.5-9.7,10.2-12,14.4
		c-2.3-4.2-6.2-9.9-12-14.4c-6.1-4.7-13-7.1-20.5-7.1c-21,0-36.8,17.2-36.8,39.9c0,22.7,49.6,44.9,42.9,61.1
		c-4.3,10.2-10.1,18.5-18.5,30.4c-3.8,5.3-8.9,9.6-13.9,13.8c-30.5,27-70.7,43.5-114.6,43.5c-38,0-73-12.2-101.6-33
		C140.5,394.3,191.9,423,250,423c82.3,0,151.1-57.4,168.6-134.4C423.4,267.8,453.4,254.7,453.4,234.5z"/>
	<path class="st0" d="M416.6,194.6c21,0,36.8,17.2,36.8,39.9c0,24.6-19.7,41.4-49.6,66.9c-5.1,4.3-10.8,9.2-16.8,14.5
		c-0.8,0.7-1.8,1.1-2.9,1.1s-2.1-0.4-2.9-1.1c-6-5.2-11.7-10.1-16.8-14.5c-29.9-25.5-49.6-42.3-49.6-66.9
		c0-22.8,15.8-39.9,36.8-39.9c7.5,0,14.4,2.4,20.5,7.1c5.8,4.5,9.7,10.2,12,14.4c2.3-4.2,6.2-9.9,12-14.4
		C402.1,197,409,194.6,416.6,194.6"/>
	<path class="st7" d="M136.1,250c0-62.9,51-113.9,113.9-113.9c35.7,0,67.5,16.4,88.4,42.1c4.3-1.1,8.7-1.6,13.2-1.6
		c11.4,0,22.3,3.8,31.5,10.8c0.3,0.3,0.7,0.5,1,0.8c0.3-0.3,0.6-0.5,1-0.8c6.6-5.1,14.1-8.5,22-10C379.6,118.2,319.6,77,250,77
		c-95.5,0-173,77.4-173,173c0,77.7,51.3,143.5,121.8,165.3c52-7,97-36.4,124.6-78.3c-19.8,16.8-45.5,26.9-73.5,26.9
		C187.1,363.9,136.1,312.9,136.1,250z"/>
	<path class="st3" d="M368.4,124.1C368.5,124.1,368.5,124.1,368.4,124.1c-0.1-0.1-0.2-0.2-0.2-0.3c-1.2-1.3-2.6-2.6-4-3.7
		C333.7,93.3,293.8,77,250,77c-95.5,0-173,77.4-173,173c0,27.4,6.4,53.2,17.7,76.2c21.5,16.4,47.2,28.1,75.7,33
		c14.3,2.5,28.5,3.1,42.3,2c-46.5-15.6-80-59.5-80-111.2c0-64.8,52.5-117.3,117.3-117.3c29.2,0,55.9,10.7,76.4,28.3
		c5.1,5.9,12.7,9.6,21.1,9.6c15.5,0,28-12.5,28-28C375.5,135.5,372.8,129,368.4,124.1z"/>
	<circle class="st3" cx="249.2" cy="250.5" r="30.6"/>
</g>
</svg>
