<?xml version="1.0" encoding="UTF-8"?><!DOCTYPE svg PUBLIC "-//W3C//DTD SVG 1.1//EN" "http://www.w3.org/Graphics/SVG/1.1/DTD/svg11.dtd"><svg xmlns="http://www.w3.org/2000/svg" xmlns:xlink="http://www.w3.org/1999/xlink"><defs/><symbol id="arrow-round-down" viewBox="0 0 24 24"><path clip-rule="evenodd" d="m2 12c0-5.52285 4.47715-10 10-10 5.5228 0 10 4.47715 10 10 0 5.5228-4.4772 10-10 10-5.52285 0-10-4.4772-10-10zm11-4c0-.55228-.4477-1-1-1s-1 .44772-1 1v5.5858l-2.29289-2.2929c-.39053-.3905-1.02369-.3905-1.41422 0-.39052.3905-.39052 1.0237 0 1.4142l4.00001 4c.3905.3905 1.0237.3905 1.4142 0l4-4c.3905-.3905.3905-1.0237 0-1.4142s-1.0237-.3905-1.4142 0l-2.2929 2.2929z" fill-rule="evenodd"/></symbol><symbol id="arrow-round-up" viewBox="0 0 24 24"><path clip-rule="evenodd" d="m2 12c0-5.52285 4.47715-10 10-10 5.5228 0 10 4.47715 10 10 0 5.5228-4.4772 10-10 10-5.52285 0-10-4.4772-10-10zm9.2929-4.70711c.3905-.39052 1.0237-.39052 1.4142 0l4 4.00001c.3905.3905.3905 1.0237 0 1.4142s-1.0237.3905-1.4142 0l-2.2929-2.2929v5.5858c0 .5523-.4477 1-1 1s-1-.4477-1-1v-5.5858l-2.29289 2.2929c-.39053.3905-1.02369.3905-1.41422 0-.39052-.3905-.39052-1.0237 0-1.4142z" fill-rule="evenodd"/></symbol><symbol id="bubble-chat" viewBox="0 0 24 24"><g fill="rgb(0,0,0)"><path clip-rule="evenodd" d="m14.667 1.99994c1.6497 0 2.9899 1.33201 2.9999 2.98169l.0412 6.75757c.0102 1.664-1.3359 3.0183-2.9999 3.0183h-3.893c-.2984 0-.5812.1333-.7712.3634l-2.98109 3.6108c-.59692.723-1.77115.3009-1.77115-.6366v-2.5257c0-.4484-.36346-.8119-.81181-.8119-1.33926 0-2.42722-1.0813-2.43539-2.4205l-.04466-7.31876c-.01015-1.66397 1.33594-3.0183 2.99995-3.0183zm-7.97575 4.09106c-.41421 0-.75.33579-.75.75 0 .41422.33579.75.75.75h5.99785c.4142 0 .75-.33578.75-.75 0-.41421-.3358-.75-.75-.75zm-.75 4.4077c0-.4142.33579-.74998.75-.74998h3.37995c.4142 0 .75.33578.75.74998s-.3358.75-.75.75h-3.37995c-.41421 0-.75-.3358-.75-.75z" fill-rule="evenodd"/><path d="m10.1368 18.8928c-.1355 0-.26898-.0089-.39979-.0264-.33885-.0451-.44743-.4438-.22979-.7074l1.41968-1.7197c.095-.115.2364-.1816.3856-.1816h3.4219c2.496 0 4.5151-2.0315 4.4999-4.5275l-.0224-3.66211c-.0017-.29112.2468-.52585.5289-.45376 1.2956.33116 2.2538 1.50577 2.2548 2.90457l.0041 5.622c.0011 1.5195-1.2304 2.7519-2.7499 2.7519-.5044 0-.914.4075-.9167.9118l-.0064 1.1989c-.0045.8486-.9972 1.3062-1.6454.7586l-3.1161-2.6331c-.1805-.1525-.4091-.2362-.6454-.2362z"/></g></symbol><symbol id="close" viewBox="0 0 100 100"><path d="m50 5c-24.853 0-45 20.147-45 45s20.147 45 45 45 45-20.147 45-45-20.147-45-45-45zm16.882 56.225c1.562 1.563 1.562 4.095 0 5.657-.781.781-1.805 1.171-2.829 1.171s-2.047-.391-2.829-1.171l-11.224-11.225-11.225 11.225c-.781.781-1.805 1.171-2.829 1.171s-2.047-.391-2.829-1.171c-1.562-1.563-1.562-4.095 0-5.657l11.226-11.225-11.225-11.225c-1.562-1.563-1.562-4.095 0-5.657 1.563-1.562 4.095-1.562 5.657 0l11.225 11.225 11.225-11.225c1.563-1.562 4.095-1.562 5.657 0 1.562 1.563 1.562 4.095 0 5.657l-11.225 11.225z"/></symbol><symbol id="edit" viewBox="0 0 24 24"><path clip-rule="evenodd" d="m18.5935 10.8971c.1172-.1172.1172-.3072.0001-.4244l-5.0016-5.00157c-.1161-.11602-.3038-.11731-.4214-.00288l-9.78294 9.51915c-.30442.2962-.49072.6931-.52416 1.1165l-.27156 3.4387c-.08037 1.0176.72375 1.8878 1.74456 1.8878h2.99355c.01184 0 .02367-.0002.03549-.0004l12.13396-.0002c.4143 0 .75-.3358.75-.75s-.3358-.75-.75-.75l-9.2191.0002c-.2673 0-.40116-.3233-.2121-.5122zm-3.9206-6.46633c-.1183-.1183-.117-.31048.0029-.42715l.3-.29192c1.5023-1.46171 3.9017-1.43995 5.3772.04877 1.4806 1.49399 1.4749 3.90386-.0128 5.39081l-.2614.26124c-.1172.1171-.3071.11708-.4242-.00006z" fill="rgb(0,0,0)" fill-rule="evenodd"/></symbol><symbol id="message" viewBox="0 0 100 100"><path d="m81.889 9.556h-63.778c-7.229 0-13.111 5.881-13.111 13.111v38.95c0 7.229 5.882 13.111 13.111 13.111h14.44l14.545 14.545c.75.75 1.768 1.171 2.828 1.171s2.078-.421 2.828-1.171l14.546-14.545h14.59c7.23 0 13.112-5.882 13.112-13.111v-38.95c0-7.23-5.882-13.111-13.111-13.111zm-56.894 15.662h21.713c2.014 0 3.646 1.632 3.646 3.645s-1.632 3.645-3.646 3.645h-21.713c-2.013 0-3.645-1.632-3.645-3.645.001-2.013 1.632-3.645 3.645-3.645zm35.761 34.622h-35.761c-2.013 0-3.645-1.632-3.645-3.645s1.632-3.645 3.645-3.645h35.761c2.014 0 3.645 1.632 3.645 3.645s-1.631 3.645-3.645 3.645zm0-13.667h-35.761c-2.013 0-3.645-1.631-3.645-3.645 0-2.012 1.632-3.644 3.645-3.644h35.761c2.014 0 3.645 1.632 3.645 3.644-.001 2.014-1.631 3.645-3.645 3.645z"/></symbol><symbol id="mic-off" viewBox="0 0 24 24"><path clip-rule="evenodd" d="m11.4874 20.3339c.3387-.0643.6864-.0643 1.0251 0l.9353.1774c.4069.0772.6742.4697.597.8766-.0772.407-.4697.6743-.8766.5971l-.9353-.1774c-.1539-.0292-.312-.0292-.4659 0l-.9353.1774c-.4069.0772-.7994-.1901-.8766-.5971-.07721-.4069.1901-.7994.5971-.8766z" fill-rule="evenodd"/><path d="m7.92383 6.32609c0-2.25116 1.82493-4.07609 4.07607-4.07609 2.2512 0 4.0761 1.82493 4.0761 4.07609v6.09781c0 .6896-.1713 1.3393-.4736 1.9087-.0425.0801-.03.1791.0341.2432l.7255.7256c.0898.0897.2395.0743.3041-.0349.4769-.8067.7505-1.7477.7505-2.7526 0-.4142.3358-.75.75-.75.4143 0 .75.3358.75.75 0 1.4471-.4444 2.7904-1.2041 3.9009-.0554.0809-.0469.1902.0225.2595l2.7953 2.7954c.2929.2929.2929.7677 0 1.0606s-.7677.2929-1.0606 0l-16.00003-15.99997c-.29289-.29289-.29289-.76777 0-1.06066s.76777-.29289 1.06066 0l3.22279 3.22279c.06299.06299.17071.01838.17071-.07071z"/><path d="m7.92383 12.0715c0-.3564.43085-.5348.68284-.2829l3.95063 3.9506c.2683.2684.1471.718-.2312.7479-.1076.0086-.2164.0129-.3262.0129-2.25114 0-4.07607-1.8249-4.07607-4.0761z"/><path d="m13.9366 17.5741c.1953-.0748.4188-.0367.5667.1111l.4017.4017c.2344.2345.1795.6284-.124.7618-.851.3742-1.7918.5819-2.781.5819-3.81999 0-6.91669-3.0967-6.91669-6.9167 0-.4142.33579-.75.75-.75.41422 0 .75.3358.75.75 0 2.9915 2.42513 5.4167 5.41669 5.4167.6824 0 1.3353-.1262 1.9366-.3565z"/></symbol><symbol id="mic" viewBox="0 0 24 24"><path clip-rule="evenodd" d="m5.83337 11.7639c.41422 0 .75.3358.75.75 0 2.9915 2.42513 5.4167 5.41663 5.4167 2.9916 0 5.4167-2.4252 5.4167-5.4167 0-.4142.3358-.75.75-.75s.75.3358.75.75c0 3.82-3.0967 6.9167-6.9167 6.9167-3.81993 0-6.91663-3.0967-6.91663-6.9167 0-.4142.33579-.75.75-.75z" fill-rule="evenodd"/><path clip-rule="evenodd" d="m11.4874 20.3339c.3387-.0643.6865-.0643 1.0252 0l.9352.1774c.407.0772.6743.4697.5971.8766-.0772.407-.4697.6743-.8767.5971l-.9352-.1774c-.1539-.0292-.312-.0292-.466 0l-.9352.1774c-.4069.0772-.7994-.1901-.87664-.5971-.07721-.4069.19014-.7994.59704-.8766z" fill-rule="evenodd"/><path d="m12 2.25c-2.25115 0-4.07608 1.82493-4.07608 4.07609v6.09781c0 2.2512 1.82493 4.0761 4.07608 4.0761 2.2512 0 4.0761-1.8249 4.0761-4.0761v-6.09781c0-2.25116-1.8249-4.07609-4.0761-4.07609z"/></symbol><symbol id="minus" viewBox="0 0 100 100"><path d="m50 5c-24.853 0-45 20.147-45 45s20.147 45 45 45 45-20.147 45-45-20.147-45-45-45zm19.875 49h-39.75c-2.209 0-4-1.791-4-4s1.791-4 4-4h39.75c2.209 0 4 1.791 4 4s-1.791 4-4 4z"/></symbol><symbol id="pin" viewBox="0 0 512 512">
  <!-- Generator: Adobe Illustrator 28.7.1, SVG Export Plug-In . SVG Version: 1.2.0 Build 142)  -->
  <g>
    <g id="Layer_1">
      <path d="M468.6,207.6L304.4,43.4c-23.2-23.2-61.1-23.3-84.4-.3-23,23.3-23,61.2.2,84.4l50.9,50.9-72.5,72.5-104.1-43.2c-15.2-6.3-37.2-1.9-48.9,9.7l-10,10c-11.7,11.6-11.7,30.7,0,42.4l88.8,88.8-92.5,92.5c-8,8-8,21,0,29s9.2,6,14.5,6,10.5-2,14.5-6l92.5-92.5,88.8,88.8c11.6,11.6,30.7,11.6,42.4,0l10-10c11.6-11.6,16-33.6,9.7-48.8l-43.2-104.1,72.5-72.5,50.9,50.9c23.2,23.2,61.1,23.3,84.5.2,23-23.3,22.9-61.2-.3-84.4h0Z"/>
    </g>
  </g>
</symbol><symbol id="plus" viewBox="0 0 100 100"><path d="m50 5c-24.853 0-45 20.147-45 45s20.147 45 45 45 45-20.147 45-45-20.147-45-45-45zm19.875 49h-15.875v15.875c0 2.209-1.791 4-4 4s-4-1.791-4-4v-15.875h-15.875c-2.209 0-4-1.791-4-4s1.791-4 4-4h15.875v-15.875c0-2.209 1.791-4 4-4s4 1.791 4 4v15.875h15.875c2.209 0 4 1.791 4 4s-1.791 4-4 4z"/></symbol><symbol id="report" viewBox="0 0 100 100"><path d="m73.04 5.056h-46.08c-7.223 0-13.1 5.876-13.1 13.099v63.69c0 7.223 5.877 13.099 13.1 13.099h29.067c1.061 0 2.078-.421 2.828-1.171l26.112-26.112c.75-.75 1.172-1.768 1.172-2.829v-46.677c.001-7.223-5.876-13.099-13.099-13.099zm-21.902 67.141h-19.221c-2.209 0-4-1.791-4-4s1.791-4 4-4h19.221c2.209 0 4 1.791 4 4s-1.791 4-4 4zm16.945-18.197h-36.166c-2.209 0-4-1.791-4-4s1.791-4 4-4h36.166c2.209 0 4 1.791 4 4s-1.791 4-4 4zm0-18.197h-36.166c-2.209 0-4-1.791-4-4s1.791-4 4-4h36.166c2.209 0 4 1.791 4 4s-1.791 4-4 4z" fill="rgb(0,0,0)"/></symbol><symbol id="star" viewBox="0 0 100 100"><path d="m22.25 86.797c-1.919 5.905.622 7.75 5.645 4.101l22.252-16.168 22.251 16.167c5.023 3.65 7.563 1.804 5.644-4.101l-8.499-26.158 22.252-16.167c5.023-3.65 4.054-6.636-2.156-6.636h-27.504l-8.532-26.179c-1.918-5.905-5.059-5.905-6.977 0l-8.468 26.179h-27.798c-6.209 0-7.179 2.986-2.156 6.636l22.544 16.167z"/></symbol></svg>