<?xml version="1.0" encoding="UTF-8"?><!DOCTYPE svg PUBLIC "-//W3C//DTD SVG 1.1//EN" "http://www.w3.org/Graphics/SVG/1.1/DTD/svg11.dtd"><svg xmlns="http://www.w3.org/2000/svg" xmlns:xlink="http://www.w3.org/1999/xlink"><defs><clipPath clipPathUnits="userSpaceOnUse" id="clipPath821"><path d="M 0,512 H 512 V 0 H 0 Z" id="path819"/></clipPath></defs><symbol id="checked" viewBox="0 0 252 252">
<g>
	<path d="M180.636,74.573l-83.764,83.763l-25.509-25.508c-3.515-3.515-9.213-3.515-12.728,0c-3.515,3.515-3.515,9.213,0,12.728
		l31.873,31.873c1.757,1.758,4.06,2.636,6.364,2.636c2.303,0,4.607-0.879,6.364-2.636L193.364,87.3
		c3.515-3.515,3.515-9.213,0-12.728C189.85,71.058,184.15,71.058,180.636,74.573z"/>
	<path d="M126,0C56.523,0,0,56.523,0,126s56.523,126,126,126s126-56.523,126-126S195.477,0,126,0z M126,234
		c-59.551,0-108-48.449-108-108S66.449,18,126,18s108,48.449,108,108S185.551,234,126,234z"/>
</g>
<g>
</g>
<g>
</g>
<g>
</g>
<g>
</g>
<g>
</g>
<g>
</g>
<g>
</g>
<g>
</g>
<g>
</g>
<g>
</g>
<g>
</g>
<g>
</g>
<g>
</g>
<g>
</g>
<g>
</g>
</symbol><symbol id="diagnosis" viewBox="0 0 682.66669 682.66669"><g id="g813" transform="matrix(1.3333333,0,0,-1.3333333,0,682.66667)"><g id="g815"><g id="g817" clip-path="url(#clipPath821)"><g id="g823" transform="translate(376,464)"><path d="M 0,0 H 50.29 C 57.83,0 64,-6.17 64,-13.72 V -435.29 C 64,-442.83 57.83,-449 50.29,-449 h -340.58 c -7.54,0 -13.71,6.17 -13.71,13.71 v 421.57 c 0,7.55 6.17,13.72 13.71,13.72 L -240,0" style="fill:none;stroke:#000000;stroke-width:30;stroke-linecap:round;stroke-linejoin:round;stroke-miterlimit:10;stroke-dasharray:none;stroke-opacity:1" id="path825"/></g><g id="g827" transform="translate(365.209,432)"><path d="m 0,0 h -218.418 c -5.936,0 -10.791,4.856 -10.791,10.791 v 43.418 c 0,5.935 4.855,10.791 10.791,10.791 H 0 C 5.936,65 10.791,60.144 10.791,54.209 V 10.791 C 10.791,4.856 5.936,0 0,0 Z" style="fill:none;stroke:#000000;stroke-width:30;stroke-linecap:round;stroke-linejoin:round;stroke-miterlimit:10;stroke-dasharray:none;stroke-opacity:1" id="path829"/></g><g id="g831" transform="translate(312,304)"><path d="M 0,0 H -112" style="fill:none;stroke:#000000;stroke-width:30;stroke-linecap:round;stroke-linejoin:round;stroke-miterlimit:10;stroke-dasharray:none;stroke-opacity:1" id="path833"/></g><g id="g835" transform="translate(256,360)"><path d="M 0,0 V -112" style="fill:none;stroke:#000000;stroke-width:30;stroke-linecap:round;stroke-linejoin:round;stroke-miterlimit:10;stroke-dasharray:none;stroke-opacity:1" id="path837"/></g><g id="g839" transform="translate(136,184)"><path d="M 0,0 H 32" style="fill:none;stroke:#000000;stroke-width:30;stroke-linecap:round;stroke-linejoin:round;stroke-miterlimit:10;stroke-dasharray:none;stroke-opacity:1" id="path841"/></g><g id="g843" transform="translate(136,120)"><path d="M 0,0 H 32" style="fill:none;stroke:#000000;stroke-width:30;stroke-linecap:round;stroke-linejoin:round;stroke-miterlimit:10;stroke-dasharray:none;stroke-opacity:1" id="path845"/></g><g id="g847" transform="translate(240,184)"><path d="M 0,0 H 136" style="fill:none;stroke:#000000;stroke-width:30;stroke-linecap:round;stroke-linejoin:round;stroke-miterlimit:10;stroke-dasharray:none;stroke-opacity:1" id="path849"/></g><g id="g851" transform="translate(240,120)"><path d="M 0,0 H 136" style="fill:none;stroke:#000000;stroke-width:30;stroke-linecap:round;stroke-linejoin:round;stroke-miterlimit:10;stroke-dasharray:none;stroke-opacity:1" id="path853"/></g></g></g></g></symbol><symbol id="encrypt" viewBox="0 0 512 512"><g><path d="m446.519 305.306c-2.806-2.76-6.583-4.306-10.519-4.306h-173.153c-18.91-53.535-69.509-90-126.847-90-74.99 0-136 60.561-136 135s61.01 135 136 135c24.022 0 47.595-6.472 68.169-18.716 17.303-10.297 32.198-24.464 43.486-41.284h32.132l25.606 25.606c5.857 5.858 15.355 5.858 21.213 0l19.394-19.393 19.394 19.393c5.857 5.858 15.355 5.858 21.213 0l19.393-19.393 19.394 19.393c5.825 5.826 15.255 5.863 21.125.087l61-60c2.867-2.82 4.481-6.673 4.481-10.694s-1.614-7.874-4.481-10.694zm-10.432 109.568-19.48-19.48c-5.857-5.858-15.355-5.858-21.213 0l-19.394 19.393-19.394-19.393c-5.857-5.858-15.355-5.858-21.213 0l-19.393 19.393-19.394-19.393c-2.812-2.813-6.627-4.394-10.606-4.394h-46.645c-5.341 0-10.278 2.839-12.965 7.455-19.147 32.902-52.938 52.545-90.39 52.545-58.448 0-106-47.103-106-105s47.552-105 106-105c47.596 0 89.227 32.388 101.237 78.761 1.714 6.618 7.685 11.239 14.521 11.239h178.102l45.75 45z"/><path d="m106 301c-24.813 0-45 20.187-45 45s20.187 45 45 45 45-20.187 45-45-20.187-45-45-45zm0 60c-8.271 0-15-6.729-15-15s6.729-15 15-15 15 6.729 15 15-6.729 15-15 15z"/><path d="m151 136v-60c0-24.813-20.187-45-45-45s-45 20.187-45 45v60c0 24.813 20.187 45 45 45s45-20.187 45-45zm-60 0v-60c0-8.271 6.729-15 15-15s15 6.729 15 15v60c0 8.271-6.729 15-15 15s-15-6.729-15-15z"/><path d="m15 181c8.284 0 15-6.716 15-15v-120c0-8.284-6.716-15-15-15s-15 6.716-15 15v120c0 8.284 6.716 15 15 15z"/><path d="m391 136v-60c0-24.813-20.187-45-45-45s-45 20.187-45 45v60c0 24.813 20.187 45 45 45s45-20.187 45-45zm-60 0v-60c0-8.271 6.729-15 15-15s15 6.729 15 15v60c0 8.271-6.729 15-15 15s-15-6.729-15-15z"/><path d="m211 166v-120c0-8.284-6.716-15-15-15s-15 6.716-15 15v120c0 8.284 6.716 15 15 15s15-6.716 15-15z"/><path d="m271 166v-120c0-8.284-6.716-15-15-15s-15 6.716-15 15v120c0 8.284 6.716 15 15 15s15-6.716 15-15z"/><path d="m451 166v-120c0-8.284-6.716-15-15-15s-15 6.716-15 15v120c0 8.284 6.716 15 15 15s15-6.716 15-15z"/><path d="m497 31c-8.284 0-15 6.716-15 15v120c0 8.284 6.716 15 15 15s15-6.716 15-15v-120c0-8.284-6.716-15-15-15z"/></g></symbol><symbol id="model-gp" viewBox="0 0 512 512"><g><path d="m408 273c-20.671 0-38.255 13.42-44.531 32h-11.469c-34.738 0-63 28.262-63 63v81c0 18.196-14.804 33-33 33h-24c-18.196 0-33-14.804-33-33v-138.523c22.607-3.391 40-22.939 40-46.477v-16.079c42.022-15.822 72-56.433 72-103.921v-81c0-25.916-21.084-47-47-47h-17v-1c0-8.284-6.716-15-15-15s-15 6.716-15 15v32c0 8.284 6.716 15 15 15s15-6.716 15-15v-1h17c9.374 0 17 7.626 17 17v81c0 44.663-36.337 81-81 81h-32c-44.663 0-81-36.337-81-81v-81c0-9.374 7.626-17 17-17h17v1c0 8.284 6.716 15 15 15s15-6.716 15-15v-32c0-8.284-6.716-15-15-15s-15 6.716-15 15v1h-17c-25.916 0-47 21.084-47 47v81c0 47.488 29.978 88.099 72 103.921v16.079c0 23.538 17.393 43.085 40 46.477v138.523c0 34.738 28.262 63 63 63h24c34.738 0 63-28.262 63-63v-81c0-18.196 14.804-33 33-33h11.469c6.276 18.58 23.86 32 44.531 32 25.916 0 47-21.084 47-47s-21.084-47-47-47zm-249-9v-9.366c2.969.239 5.97.366 9 .366h32c3.03 0 6.031-.127 9-.366v9.366c0 9.374-7.626 17-17 17h-16c-9.374 0-17-7.626-17-17zm249 73c-9.374 0-17-7.626-17-17s7.626-17 17-17 17 7.626 17 17-7.626 17-17 17z"/></g></symbol><symbol id="model-pt" viewBox="0 0 512 512"><g><path d="m512 371c0-24.813-20.187-45-45-45h-26.19c1.665-4.695 2.58-9.741 2.58-15v-48.664l4.105-2.37c21.488-12.406 28.877-39.982 16.471-61.471-7.793-13.499-21.572-21.429-36.067-22.388-8.324-13.557-19.633-25.096-33.145-33.708-11.143-7.102-23.455-11.973-36.316-14.464 10.349-12.86 16.562-29.181 16.562-46.935 0-41.355-33.645-75-75-75s-75 33.645-75 75c0 17.519 6.054 33.642 16.159 46.422-49.728 8.245-87.769 51.549-87.769 103.578v40c0 9.005 2.189 17.504 6.043 25.014-16.164.151-30.818 6.722-41.532 17.287-11.8-16.509-31.108-27.301-52.901-27.301-35.841 0-65 29.159-65 65 0 18.605 7.87 35.397 20.44 47.257-12.457 10.091-20.44 25.499-20.44 42.743v50c0 8.284 6.716 15 15 15h482c8.284 0 15-6.716 15-15v-50c0-14.261-5.458-27.27-14.392-37.053 8.844-8.223 14.392-19.947 14.392-32.947zm-98.61-60c0 8.271-6.729 15-15 15s-15-6.729-15-15c0-.013-.002-.026-.002-.039v-13.983l30.002-17.322zm-113.39-275c24.813 0 45 20.187 45 45s-20.187 45-45 45-45-20.187-45-45 20.187-45 45-45zm-116.61 195c0-41.355 33.645-75 75-75h80c23.597 0 45.152 10.769 59.179 28.869l-81.676 47.156c-5.067 2.925-9.419 6.8-12.912 11.319-7.075-4.636-15.521-7.343-24.593-7.343h-34.998v-15c0-8.284-6.716-15-15-15s-15 6.716-15 15v30c0 8.284 6.716 15 15 15h49.998c8.271 0 15 6.729 15 15s-6.729 15-15 15h-69.998c-13.785 0-25-11.215-25-25zm-23.39 95h148.388c8.284 0 15-6.716 15-15 0 0 .128-39.321.129-39.986.005-5.482 2.763-10.345 7.376-13.009l86.603-50c7.163-4.137 16.354-1.674 20.49 5.49 4.136 7.163 1.673 16.354-5.49 20.49l-71.607 41.343c-4.641 2.68-7.5 7.631-7.5 12.99v52.682c0 8.284 6.716 15 15 15h98.611c8.271 0 15 6.729 15 15s-6.729 15-15 15h-307c-16.542 0-30-13.458-30-30s13.458-30 30-30zm-95-10c19.299 0 35 15.701 35 35s-15.701 35-35 35-35-15.701-35-35 15.701-35 35-35zm417 160h-452v-35c0-13.785 11.215-25 25-25h402c13.785 0 25 11.215 25 25z"/></g></symbol><symbol id="model-voice" viewBox="0 0 512.006 512.006"><path d="m143.971 431.294c-3.839 0-7.678-1.465-10.606-4.394-51.508-51.508-51.508-135.316 0-186.824 5.857-5.857 15.355-5.857 21.213 0s5.858 15.355 0 21.213c-39.811 39.811-39.811 104.588 0 144.398 5.858 5.857 5.858 15.355 0 21.213-2.929 2.929-6.768 4.394-10.607 4.394z"/><path d="m200.242 385.023c-3.839 0-7.678-1.465-10.606-4.394-25.994-25.994-25.994-68.289 0-94.283 5.857-5.857 15.355-5.857 21.213 0s5.858 15.355 0 21.213c-14.297 14.297-14.297 37.561 0 51.857 5.858 5.857 5.858 15.355 0 21.213-2.93 2.93-6.768 4.394-10.607 4.394z"/><path d="m87.549 476.305c-3.839 0-7.678-1.465-10.606-4.394-76.326-76.326-76.326-200.519 0-276.846 5.858-5.857 15.356-5.857 21.213 0 5.858 5.857 5.858 15.355 0 21.213-64.629 64.63-64.629 169.791 0 234.42 5.858 5.857 5.858 15.355 0 21.213-2.929 2.929-6.768 4.394-10.607 4.394z"/><path d="m477.313 512.006c-5.715 0-11.174-3.283-13.679-8.83l-20.224-44.781c-3.138-6.948-10.117-11.361-17.71-11.219-26.632.465-59.341.957-76.033.627-17.957-.355-28.423-7.979-34.041-14.312-7.784-8.773-11.355-20.76-10.056-33.75.752-7.528-1.282-10.093-5.333-15.2-3.064-3.863-6.878-8.67-8.718-15.516-2.792-10.393 1.287-21.721 10.391-28.859.407-.318.831-.617 1.269-.893l30.14-18.959-45.046-17.09c-.384-.146-.762-.308-1.133-.484-10.76-5.128-16.716-16.888-14.485-28.596l5.827-30.589c.594-3.118-.092-6.26-1.933-8.847-1.84-2.588-4.583-4.267-7.725-4.729l-29.654-4.359c-8.207-1.208-15.242-6.396-18.82-13.877-3.578-7.48-3.201-16.213 1.008-23.357l56.521-95.938c8.598-14.593 11.99-31.86 9.552-48.621l-3.879-26.666c-1.192-8.198 4.486-15.811 12.685-17.003s15.811 4.487 17.003 12.685l3.879 26.666c3.418 23.5-1.338 47.709-13.392 68.168l-52.652 89.371 22.114 3.251c11.308 1.664 21.183 7.709 27.807 17.021s9.094 20.623 6.956 31.849l-5.229 27.451 50.626 19.207c8.926 3.386 15.061 11.391 16.008 20.892.948 9.501-3.483 18.561-11.565 23.645l-36.186 22.762c.631.876 1.428 1.881 2.134 2.771 5.104 6.433 13.645 17.199 11.682 36.829-.265 2.643-.272 7.567 2.646 10.856 2.974 3.353 8.272 4.148 12.192 4.227 16.193.319 48.543-.167 74.915-.629 19.611-.306 37.501 10.988 45.576 28.867l20.224 44.781c3.41 7.55.053 16.435-7.497 19.845-2.003.904-4.101 1.333-6.165 1.333zm-134.605-188.13h.01z"/></symbol><symbol id="prop-age" viewBox="0 0 512 512"><path d="m186 451h140c8.284 0 15-6.716 15-15v-20c0-31.171-16.877-58.461-41.962-73.255 10.487-10.809 16.962-25.531 16.962-41.745 0-33.084-26.916-60-60-60s-60 26.916-60 60c0 16.214 6.475 30.936 16.963 41.745-25.086 14.794-41.963 42.084-41.963 73.255v20c0 8.284 6.716 15 15 15zm40-150c0-16.542 13.458-30 30-30s30 13.458 30 30-13.458 30-30 30-30-13.458-30-30zm-25 115c0-30.327 24.673-55 55-55s55 24.673 55 55v5h-110z"/><path d="m457 60h-2.198c-2.181-13.603-7.308-26.194-14.983-36.426-11.235-14.982-27.207-23.574-43.819-23.574s-32.584 8.592-43.819 23.574c-7.675 10.232-12.803 22.823-14.983 36.426h-22.395c-2.181-13.603-7.308-26.194-14.983-36.426-11.236-14.982-27.208-23.574-43.82-23.574s-32.584 8.592-43.819 23.574c-7.675 10.232-12.802 22.823-14.983 36.426h-22.395c-2.181-13.603-7.308-26.194-14.983-36.426-11.236-14.982-27.208-23.574-43.82-23.574s-32.584 8.592-43.819 23.574c-7.675 10.232-12.802 22.823-14.983 36.426h-2.198c-30.327 0-55 24.673-55 55v342c0 30.327 24.673 55 55 55h402c30.327 0 55-24.673 55-55v-342c0-30.327-24.673-55-55-55zm-61-30c12.775 0 23.989 12.72 28.212 30h-56.423c4.222-17.28 15.436-30 28.211-30zm-140 0c12.775 0 23.989 12.72 28.212 30h-56.423c4.222-17.28 15.436-30 28.211-30zm-140 0c12.775 0 23.989 12.72 28.212 30h-56.424c4.223-17.28 15.437-30 28.212-30zm-86 85c0-13.785 11.215-25 25-25h2.198c2.181 13.603 7.308 26.194 14.983 36.426 11.235 14.982 27.207 23.574 43.819 23.574 8.284 0 15-6.716 15-15s-6.716-15-15-15c-12.775 0-23.989-12.72-28.212-30h109.409c2.181 13.603 7.308 26.194 14.983 36.426 11.236 14.982 27.208 23.574 43.82 23.574 8.284 0 15-6.716 15-15s-6.716-15-15-15c-12.775 0-23.989-12.72-28.212-30h109.409c2.181 13.603 7.308 26.194 14.983 36.426 11.236 14.982 27.208 23.574 43.82 23.574 8.284 0 15-6.716 15-15s-6.716-15-15-15c-12.775 0-23.989-12.72-28.212-30h89.212c13.785 0 25 11.215 25 25v65h-452zm452 342c0 13.785-11.215 25-25 25h-402c-13.785 0-25-11.215-25-25v-247h452z"/></symbol><symbol id="prop-biologicalSex-female" viewBox="0 0 226.661 226.661">
<path d="M191.384,78.055C191.384,35.015,156.372,0,113.336,0C70.294,0,35.277,35.015,35.277,78.055
	c0,40.506,31.023,73.895,70.559,77.682v20.648H78.052c-4.142,0-7.5,3.358-7.5,7.5c0,4.142,3.358,7.5,7.5,7.5h27.783v27.776
	c0,4.142,3.358,7.5,7.5,7.5c4.142,0,7.5-3.358,7.5-7.5v-27.776h27.773c4.142,0,7.5-3.358,7.5-7.5c0-4.142-3.358-7.5-7.5-7.5h-27.773
	v-20.648C160.365,151.949,191.384,118.561,191.384,78.055z M50.277,78.055C50.277,43.286,78.565,15,113.336,15
	c34.765,0,63.049,28.286,63.049,63.055c0,34.766-28.284,63.05-63.049,63.05C78.565,141.105,50.277,112.82,50.277,78.055z"/>
<g>
</g>
<g>
</g>
<g>
</g>
<g>
</g>
<g>
</g>
<g>
</g>
<g>
</g>
<g>
</g>
<g>
</g>
<g>
</g>
<g>
</g>
<g>
</g>
<g>
</g>
<g>
</g>
<g>
</g>
</symbol><symbol id="prop-biologicalSex-male" viewBox="0 0 512.205 512.205"><g><path d="m496.9 0h-96.127c-8.284 0-15 6.716-15 15s6.716 15 15 15h59.956l-117.577 117.577c-81.432-70.25-204.922-66.759-282.166 10.487-80.908 80.907-80.908 212.554 0 293.461 40.454 40.454 93.592 60.681 146.73 60.681s106.277-20.227 146.73-60.681c77.437-77.436 80.747-201.346 9.954-282.77l117.5-117.5v59.873c0 8.284 6.716 15 15 15s15-6.716 15-15v-96.128c0-8.284-6.716-15-15-15zm-163.666 430.312c-69.211 69.21-181.824 69.21-251.035 0-69.21-69.211-69.21-181.825 0-251.035 34.605-34.605 80.062-51.908 125.518-51.908s90.912 17.303 125.518 51.908c69.209 69.21 69.209 181.824-.001 251.035z"/></g></symbol><symbol id="prop-bloodPressure" viewBox="0 0 513.002 513.002"><path d="m512.502 213.9c0-75.458-61.389-136.847-136.846-136.847-2.165 0-4.318.057-6.459.157-7.37-26.117-25.252-49.131-49.752-63.292-26.46-15.296-57.174-17.592-84.263-6.298-21.88 9.118-38.103 26.55-48.47 40.816-10.367-14.267-26.589-31.698-48.47-40.816-27.616-11.51-58.821-8.925-85.614 7.092-28.717 17.168-48.514 47.682-51.664 79.633-.008.083-.016.166-.022.249-6.449 78.895 58.919 135.836 116.52 176.58 21.944 15.706 42.285 28.507 62.185 39.134 4.416 2.358 9.716 2.358 14.132 0 18.879-10.082 38.156-22.125 58.762-36.701 15.739 32.323 43.84 57.558 78.112 69.527v124.343c0 24.813 20.187 45 45 45s45-20.186 45-45v-124.34c53.418-18.653 91.849-69.537 91.849-129.237zm-274 32.88c-18.254 13.065-35.272 23.979-51.79 33.205-16.518-9.227-33.542-20.146-51.858-33.254-23.335-16.506-52.88-38.903-74.409-65.81-22.226-27.778-31.914-55.176-29.614-83.752 2.273-22.626 16.515-44.347 37.19-56.708 18.818-11.249 39.656-13.077 58.68-5.149 29.209 12.172 46.251 47.854 46.405 48.182 2.459 5.295 7.767 8.683 13.605 8.683s11.146-3.388 13.605-8.683c.166-.358 17.416-36.102 46.406-48.182 18.652-7.776 39.146-6.148 57.709 4.58 16.377 9.466 28.932 24.899 34.803 42.09-57.832 15.986-100.424 69.067-100.424 131.918 0 10.395 1.171 20.521 3.377 30.258-1.191.852-2.41 1.72-3.685 2.622zm152.15 220.697c0 8.271-6.729 15-15 15s-15-6.729-15-15v-117.558c4.929.54 9.933.826 15.004.826 5.068 0 10.07-.286 14.996-.825zm-14.996-146.732c-58.915 0-106.846-47.931-106.846-106.846s47.931-106.847 106.846-106.847 106.846 47.933 106.846 106.848-47.931 106.845-106.846 106.845z"/><path d="m412.577 155.768-17.534 17.528c-5.874-2.816-12.449-4.396-19.387-4.396-24.813 0-45 20.187-45 45s20.187 45 45 45 45-20.187 45-45c0-6.94-1.581-13.516-4.399-19.392l17.53-17.523c5.859-5.856 5.86-15.354.003-21.213-5.856-5.861-15.353-5.861-21.213-.004zm-36.921 73.132c-8.271 0-15-6.729-15-15s6.729-15 15-15 15 6.729 15 15-6.729 15-15 15z"/></symbol><symbol id="prop-bloodType" viewBox="0 0 512 512">
<g>
	<g>
		<g>
			<path d="M270.889,7.072c-7.683-9.435-22.104-9.425-29.778,0C188.88,71.214,66.464,237.176,66.464,322.464
				C66.464,426.974,151.49,512,256,512s189.537-85.026,189.537-189.537C445.537,237.147,322.549,70.511,270.889,7.072z M256,473.6
				c-83.336,0-151.136-67.8-151.136-151.136c0-64.77,98.285-204.471,151.139-272.405c52.854,67.916,151.135,207.59,151.135,272.405
				C407.136,405.802,339.338,473.6,256,473.6z"/>
			<path d="M165.382,322.464c0-0.097,0.134-10.015,10.618-34.825c4.128-9.768-0.444-21.032-10.213-25.159
				c-9.768-4.128-21.032,0.445-25.159,10.213c-11.873,28.098-13.646,43.244-13.646,49.772c0,10.599,8.588,19.18,19.187,19.187
				c0.004,0,0.008,0,0.013,0C156.775,341.651,165.368,333.058,165.382,322.464z"/>
			<path d="M256,413.082c-29.485,0-57.243-14.482-74.254-38.74c-6.088-8.681-18.061-10.784-26.743-4.696
				c-8.682,6.088-10.785,18.061-4.696,26.745c24.19,34.496,63.702,55.092,105.694,55.092c10.604,0,19.2-8.597,19.2-19.2
				C275.2,421.679,266.604,413.082,256,413.082z"/>
		</g>
	</g>
</g>
<g>
</g>
<g>
</g>
<g>
</g>
<g>
</g>
<g>
</g>
<g>
</g>
<g>
</g>
<g>
</g>
<g>
</g>
<g>
</g>
<g>
</g>
<g>
</g>
<g>
</g>
<g>
</g>
<g>
</g>
</symbol><symbol id="prop-height" viewBox="0 0 512 512"><g><path d="m216 100h-5.271c6.489-10.112 10.271-22.119 10.271-35 0-35.841-29.159-65-65-65s-65 29.159-65 65c0 12.881 3.782 24.888 10.271 35h-5.271c-41.355 0-75 33.645-75 75v102c0 24.813 20.187 45 45 45 5.257 0 10.307-.906 15-2.57v147.57c0 24.813 20.187 45 45 45 11.515 0 22.033-4.347 30-11.486 7.967 7.139 18.485 11.486 30 11.486 24.813 0 45-20.187 45-45v-147.57c4.693 1.664 9.743 2.57 15 2.57 24.813 0 45-20.187 45-45v-102c0-41.355-33.645-75-75-75zm-95-35c0-19.299 15.701-35 35-35s35 15.701 35 35-15.701 35-35 35-35-15.701-35-35zm140 212c0 8.271-6.729 15-15 15s-15-6.729-15-15v-80c0-8.284-6.716-15-15-15s-15 6.716-15 15v270c0 8.271-6.729 15-15 15s-15-6.729-15-15v-120c0-8.284-6.716-15-15-15s-15 6.716-15 15v120c0 8.271-6.729 15-15 15s-15-6.729-15-15v-270c0-8.284-6.716-15-15-15s-15 6.716-15 15v80c0 8.271-6.729 15-15 15s-15-6.729-15-15v-102c0-24.813 20.187-45 45-45h120c24.813 0 45 20.187 45 45z"/><path d="m476 0h-200c-8.284 0-15 6.716-15 15s6.716 15 15 15h65v467c0 8.284 6.716 15 15 15h120c8.284 0 15-6.716 15-15v-482c0-8.284-6.716-15-15-15zm-15 482h-90v-31h15c8.284 0 15-6.716 15-15s-6.716-15-15-15h-15v-30h35c8.284 0 15-6.716 15-15s-6.716-15-15-15h-35v-30h15c8.284 0 15-6.716 15-15s-6.716-15-15-15h-15v-30h35c8.284 0 15-6.716 15-15s-6.716-15-15-15h-35v-30h15c8.284 0 15-6.716 15-15s-6.716-15-15-15h-15v-30h35c8.284 0 15-6.716 15-15s-6.716-15-15-15h-35v-30h15c8.284 0 15-6.716 15-15s-6.716-15-15-15h-15v-31h90z"/></g></symbol><symbol id="prop-weight" viewBox="0 0 511.998 511.998"><g><path d="m454.923 180.669-94.801-29.246c-6.679-51.507-50.826-91.423-104.123-91.423-53.296 0-97.444 39.915-104.124 91.423l-94.8 29.246c-6.817 2.103-11.21 8.717-10.505 15.816l30.002 301.995c.762 7.673 7.217 13.518 14.927 13.518h328.998c7.71 0 14.164-5.845 14.927-13.517l30.004-301.996c.705-7.099-3.688-13.714-10.505-15.816zm-198.924-90.669c41.355 0 75 33.645 75 75s-33.646 75-75 75-75-33.645-75-75 33.644-75 75-75zm150.914 391.998h-301.831l-27.446-276.277 74.851-23.093c8.408 49.533 51.621 87.372 103.512 87.372s95.103-37.838 103.512-87.371l74.852 23.092z"/><path d="m100.151 125.172c2.782 5.358 8.512 8.539 14.521 8.039 6.018-.486 11.156-4.532 13.042-10.267 18.276-55.592 69.829-92.944 128.285-92.944 58.455 0 110.008 37.352 128.284 92.944 2.076 6.315 7.944 10.319 14.247 10.319 1.553 0 3.132-.243 4.688-.754 7.87-2.588 12.152-11.064 9.565-18.935-10.766-32.745-31.203-60.921-59.103-81.48-28.495-20.996-62.273-32.094-97.681-32.094-35.41 0-69.187 11.098-97.681 32.095-18.99 13.993-34.521 31.513-45.9 51.601l-4.004-7.711c-3.817-7.353-12.871-10.218-20.225-6.4-7.352 3.817-10.217 12.873-6.4 20.225z"/><path d="m245.392 175.606c2.929 2.929 6.768 4.394 10.606 4.394s7.678-1.465 10.607-4.394c5.857-5.858 5.857-15.354 0-21.213l-21.135-21.134c-5.857-5.857-15.355-5.857-21.213 0s-5.858 15.355.001 21.213z"/><path d="m253.917 310.007c-8.284 0-15 6.716-15 15v91.983c0 8.284 6.716 15 15 15s15-6.716 15-15v-91.983c0-8.284-6.716-15-15-15z"/></g></symbol><symbol id="registration-form" viewBox="0 0 512 512"><g><path d="m75 212h240c19.881-.738 19.866-29.269 0-30h-240c-19.881.738-19.866 29.269 0 30z"/><path d="m75 272h120c19.881-.738 19.866-29.269 0-30h-120c-19.881.738-19.866 29.269 0 30z"/><path d="m75 332h120c19.881-.738 19.866-29.269 0-30h-120c-19.881.738-19.866 29.269 0 30z"/><path d="m75 392h80c19.881-.738 19.866-29.269 0-30h-80c-19.881.738-19.866 29.269 0 30z"/><path d="m165 121h15v15c.738 19.881 29.269 19.866 30 0v-15h15c19.881-.738 19.866-29.269 0-30h-15v-15c-.738-19.881-29.269-19.866-30 0v15h-15c-19.881.738-19.866 29.269 0 30z"/><path d="m498.841 143.537c-17.545-17.545-46.094-17.545-63.64 0l-45.201 45.202v-78.739h45c8.284 0 15-6.716 15-15v-50c0-24.813-20.187-45-45-45h-360c-24.813 0-45 20.187-45 45v452c0 8.284 6.716 15 15 15h360c8.284 0 15-6.716 15-15v-180.982l108.841-108.841c17.545-17.545 17.545-46.094 0-63.64zm-108.841-98.537c.757-19.877 29.251-19.862 30 0v35h-30zm-30 437h-330v-437c0-8.271 6.729-15 15-15h317.58c-1.665 4.695-2.58 9.742-2.58 15v173.739l-109.842 109.842c-26.114 26.114-45.379 58.218-56.161 93.419h-118.997c-19.881.738-19.866 29.269 0 30h130.37s.132 0 .198-.001c1.133-.019 2.291-.167 3.462-.46 39.645-9.911 75.872-30.423 104.768-59.318l46.202-46.203zm-67.415-110.992c-18.288 18.288-39.967 32.704-63.711 42.498 9.793-23.744 24.209-45.422 42.498-63.711l124.939-124.94 21.213 21.213zm185.043-185.044-38.891 38.891-21.213-21.213 38.891-38.891c5.849-5.848 15.365-5.848 21.213 0s5.848 15.364 0 21.213z"/></g></symbol><symbol id="transcript" viewBox="0 0 512 512"><g><path d="m0 349.022c0 12.187 13.808 19.277 23.711 12.211l82.471-58.832c6.917-4.934 15.065-7.542 23.563-7.542h181.382c31.928 0 57.902-25.975 57.902-57.902v-190.331c0-8.284-6.716-15-15-15h-296.127c-31.927 0-57.902 25.974-57.902 57.902zm30-259.494c0-15.386 12.517-27.902 27.902-27.902h281.126v175.331c0 15.386-12.517 27.902-27.902 27.902h-181.382c-14.78 0-28.952 4.537-40.984 13.12l-58.76 41.917z"/><path d="m512 205.876c0-31.932-25.974-57.91-57.9-57.91h-40.07c-8.284 0-15 6.716-15 15s6.716 15 15 15h40.07c15.385 0 27.9 12.521 27.9 27.91v230.364l-58.759-41.915c-12.031-8.583-26.202-13.119-40.981-13.119h-181.39c-15.385 0-27.9-12.521-27.9-27.91v-13.439c0-8.284-6.716-15-15-15s-15 6.716-15 15v13.439c0 31.932 25.974 57.91 57.9 57.91h181.39c8.497 0 16.644 2.607 23.56 7.541l82.47 58.83c9.853 7.031 23.711.015 23.711-12.211v-259.49z"/><path d="m107.862 143.339h173.304c8.284 0 15-6.716 15-15s-6.716-15-15-15h-173.304c-8.284 0-15 6.716-15 15s6.716 15 15 15z"/><path d="m107.862 213.339h173.304c8.284 0 15-6.716 15-15s-6.716-15-15-15h-173.304c-8.284 0-15 6.716-15 15s6.716 15 15 15z"/></g></symbol></svg>